<svg width="364" height="40" fill="none" xmlns="http://www.w3.org/2000/svg"><g clip-path="url(#a)"><path fill-rule="evenodd" clip-rule="evenodd" d="M354.286.494c-2.459.98-4.396 3.708-4.395 6.187.001 3.559 2.988 6.506 6.593 6.506 6.814 0 9.084-9.007 3.071-12.187-2.02-1.068-3.503-1.21-5.269-.506Zm-1.355 2.047c-2.743 2.451-2.099 7.543 1.148 9.084 1.783.846 2.889.86 4.807.058 1.858-.776 2.872-2.66 2.872-5.331 0-1.739-.223-2.268-1.494-3.539-1.308-1.308-1.774-1.494-3.729-1.494-1.824 0-2.488.225-3.604 1.222Zm-339.97.008C4.736 5.393-.02 12.281.011 21.301c.028 8.014 3.545 14.02 10 17.079 2.851 1.35 3.159 1.4 8.67 1.4 5.824 0 9.308-.681 11.409-2.232.844-.623.84-.672-.31-3.016l-1.169-2.383-1.888.92c-2.593 1.265-7.76 1.552-10.996.612-3.391-.986-6.588-3.908-7.79-7.123-1.973-5.271-.822-11.977 2.673-15.579 2.534-2.61 5.172-3.703 8.95-3.703 3.924 0 5.768.913 6.716 3.323.374.954.886 1.666 1.136 1.582.486-.162 2.857-6.212 2.895-7.389.024-.743-2.036-1.796-5.032-2.573-2.821-.732-9.783-.545-12.314.33Zm36.71-.31c0 .263.395.982.879 1.597.483.615.879 1.69.879 2.39 0 .7-2.572 8.312-5.715 16.918C42.572 31.75 40 38.964 40 39.175c0 .212 2.374.385 5.275.385 2.9 0 5.275-.175 5.275-.389 0-.214-.495-.713-1.1-1.109-1.234-.808-1.389-2.046-.59-4.714l.51-1.7h14.294l1.415 3.956 1.415 3.956h3.723c2.79 0 3.674-.138 3.53-.55-.107-.301-3.226-8.807-6.931-18.9L60.08 1.758h-5.205c-3.47 0-5.205.16-5.205.48Zm34.725.15c0 .345.378.749.84.895.461.147 1.203.803 1.648 1.458.744 1.097.819 2.532.938 18.005l.13 16.813h19.341l-.13-2.967-.13-2.967-6.264-.121-6.264-.123V1.758h-5.054c-4.095 0-5.055.12-5.055.63Zm33.574-.107c-.181.292-.06.611.274.722 1.067.356 2.521 2.25 2.801 3.65.151.753.274 8.464.274 17.137v15.77h19.38l-.129-2.968-.13-2.967-6.264-.121-6.264-.123V1.758h-4.809c-3.246 0-4.914.17-5.133.524Zm33.411-.007c-.186.3-.07.616.269.73 1.067.355 2.522 2.25 2.802 3.65.15.752.273 8.467.273 17.144v15.778l10-.118 10-.118v-5.715l-6.703-.121-6.703-.121V23.297h12.747v-6.154h-12.747V7.935l6.645-.121 6.646-.122V4.835l-.001-2.857-11.45-.117c-8.577-.088-11.532.016-11.778.414Zm37.63-.157c0 .238.692 1.124 1.538 1.97l1.539 1.538V39.56h7.612c8.884 0 11.264-.504 13.984-2.961 2.691-2.432 3.65-4.597 3.665-8.28.012-2.651-.16-3.371-1.169-4.896-.67-1.012-1.928-2.142-2.901-2.605L211.56 20l1.879-1.656c2.447-2.157 3.434-4.707 3.181-8.212-.236-3.26-1.769-5.426-4.994-7.055-2.104-1.063-2.511-1.104-12.395-1.245-6.484-.091-10.22.013-10.22.286Zm49.231.12c0 .264.395.983.879 1.598.483.615.879 1.69.879 2.39 0 .7-2.571 8.312-5.714 16.918-3.143 8.605-5.715 15.82-5.715 16.031 0 .508 9.987.501 10.3-.006.133-.215-.25-.714-.853-1.11-1.23-.805-1.385-2.045-.586-4.711l.51-1.7h14.293l1.415 3.956 1.416 3.956h3.723c2.789 0 3.674-.138 3.529-.55-.107-.301-3.226-8.807-6.931-18.9l-6.736-18.352h-5.205c-3.469 0-5.204.16-5.204.48Zm32.088.164c0 .354.391.853.869 1.11 1.839.983 1.979 1.92 2.208 14.763l.219 12.34 1.323 2.586c2.394 4.677 6.509 6.799 13.183 6.799 5.918 0 10.4-1.84 12.664-5.2 2.166-3.214 2.281-4.17 2.281-18.976V1.978l-4.945-.124c-2.855-.072-4.945.049-4.945.285 0 .226.673 1.084 1.496 1.906 1.941 1.942 2.174 3.78 1.95 15.405-.164 8.487-.222 8.993-1.26 10.857-1.309 2.354-3.099 3.48-6.097 3.835-4.59.544-7.978-1.925-8.834-6.439-.243-1.28-.442-7.642-.442-14.136V1.758h-4.835c-3.954 0-4.835.118-4.835.644Zm47.472 3.965c0 2.542.112 4.622.249 4.622.138 0 .903-.692 1.701-1.539 1.394-1.478 1.572-1.538 4.586-1.538h3.135V39.56H334.506V7.912h3.134c3.014 0 3.192.06 4.586 1.538.798.847 1.669 1.539 1.936 1.539.329 0 .444-1.44.359-4.506l-.125-4.505-13.297-.117-13.297-.116v4.622Zm36.137.336c.128 3.649.878 4.88 1.142 1.878.188-2.123 1.344-2.029 2.625.214.551.965 1.193 1.754 1.428 1.754.622 0 .532-.384-.467-2.001l-.894-1.447.893-.283c1.097-.348 1.63-2.196.89-3.087-.369-.444-1.378-.654-3.144-.654h-2.601l.128 3.626Zm1.226-1.622c0 1.032.137 1.115 1.648.99 1.324-.11 1.676-.332 1.789-1.126.126-.887-.045-.989-1.648-.989-1.626 0-1.789.102-1.789 1.125Zm-156.044 7.446v5.055l2.527-.01c5.758-.024 8.022-1.496 8.022-5.212 0-3.446-2.299-4.888-7.799-4.888h-2.75v5.055ZM56.08 12.57c-.173.703-1.19 3.756-2.263 6.786-1.072 3.03-1.949 5.75-1.949 6.044 0 .388 1.334.535 4.865.535 4.434 0 4.843-.068 4.619-.77-.136-.422-1.307-3.717-2.602-7.32-2.059-5.722-2.397-6.39-2.67-5.275Zm188.571 0c-.172.703-1.19 3.756-2.262 6.786s-1.949 5.75-1.949 6.044c0 .388 1.333.535 4.864.535 4.434 0 4.843-.068 4.619-.77-.135-.422-1.306-3.717-2.602-7.32-2.058-5.722-2.396-6.39-2.67-5.275Zm-45.53 15.961v5.316h3.53c2.058 0 4.155-.26 5.026-.624 3.023-1.264 3.878-5.709 1.591-8.27-1.265-1.416-1.342-1.438-5.715-1.587l-4.432-.15v5.315Z" fill="#fff"/></g><defs><clipPath id="a"><path fill="#fff" d="M0 0h363.077v40H0z"/></clipPath></defs></svg>