<svg width="94" height="40" fill="none" xmlns="http://www.w3.org/2000/svg"><g clip-path="url(#a)" fill-rule="evenodd" clip-rule="evenodd" fill="#fff"><path d="M74.078 9.087c.02-4.446 3.63-9.184 8.99-9.184 4.99 0 9.01 4.116 9.01 9.184s-4.253 9.185-9.01 9.185c-4.99 0-8.99-4.097-8.99-9.185Zm2.602.466c-.311-4.582 2.058-8.485 5.786-8.757 4-.31 6.447 2.796 6.97 7.864.37 5.301-2.27 8.505-5.805 8.757-3.67.292-6.621-3.281-6.951-7.864ZM13.883 30.777c.02-4.447 3.632-9.185 8.99-9.185 4.991 0 9.03 4.117 9.03 9.185 0 5.068-4.252 9.184-9.03 9.184-4.97-.02-8.99-4.116-8.99-9.184Zm2.622.446c-.31-4.582 2.058-8.466 5.786-8.757 4-.31 6.447 2.796 6.971 7.864.37 5.301-2.272 8.505-5.806 8.757-3.67.292-6.621-3.262-6.951-7.864Zm31.747 4.544c-1.786 2.66-4.504 4.194-6.64 4.194-4.505 0-8.563-4-8.563-9.145 0-5.146 4.136-9.301 9.223-9.301 1.748 0 3.417.349 4.951.737l-.854 3.962-.291-.078c.466-1.825-1.593-3.922-4.292-3.922-3.96 0-6.097 3.534-6.097 7.902 0 3.632 1.884 6.68 4.447 7.612.252.097 3.961 1.748 7.883-2.233l.233.272ZM27.38 7.728c0 .757-.156.66.699.738.563.058 1.3-.02 1.98-.097 1.593-.175 3.224-1.767 2.894-4.194-.408-2.932-2.156-3.379-3.32-3.476-1.282-.117-1.962.116-2.079 1.495-.097 1.515-.174 5.534-.174 5.534ZM23.456.194c1.107.136 7.573.039 7.98.039.409 0 3.981-.194 3.923 3.3-.058 3.574-4.116 5.069-4.194 5.01.427.68 5.282 5.865 6.952 7.438 1.572 1.475 2.136 1.65 2.893 1.728v.29c-3.98.875-5.457-1.183-6.253-2.018-.893-.932-3.572-4.564-4.796-5.884-1.068-1.165-2.116-.951-2.602-.99-.039.582.02 4.233.02 5.126.077 1.747.174 3.379 2.116 3.417V18c-.175 0-2.699-.078-2.932-.058-.233.02-2.252-.02-3.01.058v-.369c.971-.078 1.437-.582 1.457-1.767.097-1.69.136-10.621.02-13.573-.06-1.126-.467-1.709-1.554-1.709l-.02-.388Z"/><path d="M40.214 7.728c0 .757-.156.66.699.738.563.058 1.3-.02 1.98-.097 1.593-.175 3.224-1.767 2.893-4.194-.407-2.932-2.155-3.379-3.32-3.476-1.282-.117-1.961.116-2.078 1.495-.097 1.515-.174 5.534-.174 5.534ZM36.29.194c1.107.136 7.573.039 7.98.039.409 0 3.981-.194 3.923 3.3-.058 3.574-4.116 5.069-4.194 5.01.427.68 5.282 5.865 6.952 7.438 1.572 1.475 2.135 1.65 2.893 1.728v.29c-3.98.875-5.457-1.184-6.253-2.018-.893-.932-3.573-4.564-4.815-5.884-1.068-1.165-2.117-.951-2.602-.99-.04.582-.04 4.213.02 5.126.038.874.057 1.709.33 2.33-.855-.447-2.098-1.65-2.66-2.505.057-3.243.077-9.437-.02-11.786C37.767 1.146 37.32.563 36.29.563V.194Zm28.233 7.534c0 .757-.155.66.7.738.562.058 1.3-.02 1.98-.097 1.592-.175 3.223-1.767 2.893-4.194-.408-2.932-2.155-3.379-3.32-3.476-1.282-.117-1.961.116-2.078 1.495-.097 1.515-.175 5.534-.175 5.534ZM60.621.194c1.107.136 7.573.039 7.981.039.408 0 3.98-.194 3.922 3.3-.058 3.574-4.116 5.069-4.194 5.01.427.68 5.282 5.865 6.952 7.438 1.572 1.475 2.136 1.65 2.893 1.728v.29c-3.98.875-5.456-1.184-6.253-2.018-.893-.932-3.572-4.564-4.815-5.884-1.068-1.165-2.117-.951-2.602-.99-.039.582.02 4.233.02 5.126.077 1.747.174 3.379 2.116 3.417V18c-.175 0-2.7-.078-2.932-.058-.233.02-2.253-.02-3.01.058v-.369c.97-.078 1.437-.582 1.456-1.767.097-1.69.156-10.621.02-13.573-.078-1.126-.466-1.709-1.554-1.709V.194ZM79.71 29.495c0 .757-.156.66.699.738.563.039 1.3-.02 2-.097 1.592-.175 3.223-1.767 2.874-4.175-.408-2.951-2.156-3.379-3.32-3.476-1.263-.116-1.962.117-2.079 1.495-.097 1.515-.174 5.515-.174 5.515Zm-3.903-7.515c1.107.136 7.573.04 7.98.04.408 0 3.981-.195 3.923 3.3-.059 3.573-4.117 5.068-4.194 5.01.427.68 5.281 5.864 6.951 7.437 1.573 1.476 2.136 1.65 2.893 1.728v.291c-3.98.874-5.456-1.184-6.252-2.02-.893-.931-3.592-4.562-4.816-5.883-1.068-1.165-2.116-.951-2.602-.99-.038.602.02 4.233.02 5.146.077 1.747.174 3.378 2.116 3.417v.35c-.175 0-2.699-.078-2.932-.078-.233.02-2.252-.02-3.029.078v-.37c.971-.077 1.437-.582 1.456-1.766.098-1.69.156-10.622.02-13.573-.078-1.126-.466-1.709-1.554-1.728l.02-.389ZM4.369 29.398c0 .757-.155.66.699.738.563.058 1.301-.039 2-.097 1.592-.175 3.223-1.767 2.874-4.175-.408-2.951-2.156-3.379-3.32-3.476-1.282-.097-1.962.117-2.078 1.495-.117 1.496-.175 5.515-.175 5.515ZM.447 21.864c1.106.136 7.572.039 7.98.039.408 0 3.98-.194 3.923 3.3-.059 3.574-4.117 5.069-4.195 5.01.428.68 5.301 5.865 6.971 7.437 1.573 1.476 2.136 1.65 2.893 1.729v.29c-3.98.855-5.456-1.184-6.252-2.019-.893-.932-3.573-4.563-4.796-5.883-1.068-1.165-2.117-.951-2.602-.99-.039.602.02 4.233.02 5.126.077 1.747.174 3.379 2.135 3.417v.35c-.174 0-2.718-.078-2.932-.058-.233.019-2.252-.02-3.029.058v-.37c.971-.077 1.437-.582 1.456-1.766.098-1.69.156-10.621.02-13.573-.078-1.126-.466-1.709-1.554-1.709l-.038-.388ZM-.04.408c3.612.136 9.126.29 11.554-.194-.136.932-.408 2.427-.466 3.436h-.33c0-2.31-1.748-2.388-4.719-2.64-1.709-.156-1.748.97-1.767 1.534-.058.757-.078 5.068-.097 5.611 1.69-.02 6.64.156 8.252-.796l.098.272c-1.457 1.107-4.292 2-8.33 1.942-.059.699.038 5.398.135 6.272.214 1.767 1.612 1.767 2.156 1.786V18c-1.631-.02-3.981-.078-6.272 0v-.35c.602-.097 1.553-.038 1.65-1.786.156-1.67.156-10.699.02-13.456C1.767 1.223 1.068.835-.04.777v-.37Z"/><path d="M17.282 17.825c-.66-.02-3.107.136-5.399.194v-.388c.971-.058 1.65-.175 1.65-1.65.098-1.69.156-10.855.079-13.67-.059-1.146-.486-1.67-1.399-1.69V.252c3.399.214 7.632.253 10.098-.174-.117.873-.35 2.446-.428 3.398 0 .02-.368-.02-.368 0 .155-2.447-2.117-2.389-3.787-2.563C16 .738 16.038 1.98 16.02 2.563c-.058.757-.116 4.583-.136 5.126 2.292.136 5.476-.077 6.641-.835l.155.253c-1.456 1.107-3.689 1.864-6.834 2.039-.04.602-.02 4.233.019 5.145.058.913-.175 2.68 2.291 2.66 2.466-.019 4.622.136 5.709-2.31l.33.116c-.621 2.253-.621 3.204-2.64 3.262a168.069 168.069 0 0 0-4.272-.194Zm33.611-3.495c.078-3.262.097-9.728.039-12.02-.058-1.145-.466-1.708-1.398-1.689V.252c3.398.214 7.612.253 10.078-.174-.117.873-.35 2.446-.428 3.398 0 .02-.368-.02-.368 0 .155-2.447-2.117-2.389-3.787-2.563-1.728-.175-1.67 1.068-1.709 1.65-.058.757-.116 4.583-.136 5.126 2.292.136 5.476-.077 6.641-.835l.155.253c-1.456 1.107-3.689 1.864-6.815 2.039-.039.602-.039 4.233.02 5.145.058.913-.175 2.68 2.29 2.66 2.467-.019 4.622.136 5.71-2.31l.33.116c-.622 2.253-.622 3.204-2.641 3.262-.971-.058-2.097-.097-2.99-.135-1.942-.544-4.272-2.68-4.99-3.554Zm18.058 25.262c-.66-.02-3.106.136-5.398.194v-.388c.971-.058 1.65-.175 1.65-1.65.098-1.69.156-10.835.078-13.67-.058-1.146-.485-1.67-1.398-1.69v-.369c3.398.214 7.631.253 10.078-.174-.116.873-.35 2.446-.427 3.398 0 .02-.369-.02-.369 0 .155-2.447-2.117-2.389-3.786-2.563-1.729-.175-1.69 1.067-1.71 1.65-.057.757-.116 4.583-.135 5.126 2.291.136 5.476-.077 6.64-.835l.156.253c-1.456 1.107-3.69 1.864-6.816 2.039-.038.602-.038 4.233.02 5.145.058.913-.175 2.68 2.291 2.66 2.466-.019 4.621.136 5.709-2.31l.33.116c-.621 2.253-.621 3.204-2.64 3.262a168.069 168.069 0 0 0-4.273-.194Zm-10.019-9.534c-1.67.835-3.864 1.262-7.049 1.165-.058.7.02 5.398.117 6.272.136 1.709 1.184 1.806 2.116 1.825v.37c-1.63-.04-3.98-.059-6.271.019v-.37c.893-.077 1.67-.077 1.786-1.65.155-1.67.039-10.99-.097-13.728-.078-1.184-.757-1.592-1.884-1.592v-.427c1.845.136 4.622.116 6.233-.02v.389c-1.728 0-2.019 1.106-1.98 1.903 0 .796-.078 4.893-.097 5.456 1.398-.02 4.97.272 7.107-.272-.02-.563-.136-4.233-.136-5.03-.04-.892-.583-2-2.175-2.038v-.388c1.612.136 4.369.155 6.233.02v.407c-1.049-.039-1.65.35-1.67 1.592-.136 2.757-.117 11.942.058 13.612.097 1.747 1.088 1.709 1.825 1.767v.369c-2.31-.078-4.718-.04-6.349-.02v-.369c.544.059 1.884-.077 2.097-1.786.078-.874.194-6.777.136-7.476"/></g><defs><clipPath id="a"><path fill="#fff" d="M0 0h93.398v40H0z"/></clipPath></defs></svg>