<svg width="135" height="40" fill="none" xmlns="http://www.w3.org/2000/svg"><g clip-path="url(#a)" fill="#fff"><path d="M9.755.031V16.27l7.523-8.999h10.4L18.61 19.977 27.919 39.5h-9.624l-6.112-12.02-2.428 3.172V39.5h-9.76V.031h9.76ZM134.349 15.73h-.046c-1.268 0-5.822 1.066-6.423 2.23h-.087v-1.888h-8.362v23.42h8.422v-12.01c0-3.95 2.142-4.861 5.573-4.861.343 0 .647.014.923.031V15.73Zm-24.773 9.443c0-2.114-1.639-3.826-3.962-3.826-2.688 0-4.236 1.363-4.645 3.826h8.607Zm-8.655 5.235c.23 2.596 1.778 4.27 4.602 4.27 1.457 0 3.05-1.055 3.781-2.156h8.131c-1.821 4.927-6.493 7.216-11.867 7.216-7.558 0-13.25-4.312-13.25-11.927 0-6.642 5.007-12.052 12.478-12.052 9.382 0 13.139 5.762 13.139 14.649h-17.014Zm-23.65-9.134c-4.27 0-5.232 3.48-5.232 6.646 0 3.218.961 6.699 5.231 6.699s5.232-3.48 5.232-6.699c0-3.166-.961-6.646-5.231-6.646Zm13.635 18.17h-8.404v-2.592h-.084c-1.101 1.453-2.422 3.082-6.692 3.082-6.465 0-11.64-6.381-11.64-12.101 0-5.368 4.117-11.881 11.773-11.881-.228 0 5.406.084 6.248 1.317h.087V7.21h8.712v32.236Zm-51.352-23.36h8.247l.045.891h.084c.475-.681 4.952-1.46 7.25-1.46 4.016 0 7.685 2.505 7.685 7.74v16.224h-8.547V25.561c0-2.642-.304-4.49-2.806-4.49-1.468 0-3.41.747-3.41 4.403v14.005h-8.548V16.084ZM37.487 39.52h-8.491V16.07h8.491v23.45Zm-.035-25.006h-8.49l.034-7.304h8.491l-.035 7.304Z"/></g><defs><clipPath id="a"><path fill="#fff" d="M0 0h134.384v40H0z"/></clipPath></defs></svg>