<svg width="61" height="39" fill="none" xmlns="http://www.w3.org/2000/svg"><path fill-rule="evenodd" clip-rule="evenodd" d="M60.045 10.88c2.751 9.196-8.333 20.789-24.528 25.77-16.185 4.97-31.76 1.623-34.507-7.554C-1.741 19.9 9.352 8.27 25.527 3.28 41.718-1.716 57.29 1.669 60.046 10.88ZM2.549 28.632c2.68 8.946 17.133 12.04 32.796 7.207C50.99 31.014 61.349 20.26 58.67 11.316 55.976 2.304 41.46-.824 25.813 4.004 10.15 8.836-.145 19.62 2.55 28.632Z" fill="#fff"/><path d="m25.666 4.668-9.274 20.045 9.016 12.43c-1.33.132-3.492.293-5.443.229l-6.479-8.62-.101 7.687c-1.287-.336-2.828-.82-4.42-1.672v-19.87c.983-.798 3.578-1.3 4.429-1.337v7.212L19.05 7.286c.96-.462 3.67-1.716 6.616-2.618Z" fill="#fff"/><path d="m20.462 21.543.055 7.94 3.416-.768-.046-9.153-3.425 1.981ZM23.583 16.228c.51.791.32 2.05-.44 2.775-.76.726-1.796.664-2.309-.125-.514-.805-.345-2.054.436-2.791.782-.736 1.796-.662 2.313.14ZM24.259 19.931l1.057-.28-.032 5.183c-.005 1.834 1.165 2.529 1.882 2.747 1.506.46 3.048-.458 3.574-1.69.357-.84.357-1.792.306-2.29-.323.274-1.322 1.488-1.995.9-.226-.197-.262-.644-.26-1.565l.033-4.22 2.18-.583.022-2.507-2.167.578.036-2.804-1.067.283-3.541 5.015-.028 1.233ZM45.978 2.944l-6.912 16.82 7.356 10.44c-1.062.728-3.375 1.936-4.143 2.294l-6.055-8.482v10.919a55.47 55.47 0 0 1-4.591 1.3V3.165c1.009-.21 3.457-.547 4.422-.615l.06 12.88L40.88 2.41c1.516.04 3.431.209 5.098.534Z" fill="#fff"/><path fill-rule="evenodd" clip-rule="evenodd" d="M44.738 11.678c1.966-.702 4.225.362 4.286 2.515l.005 5.252c0 .546.811.381 1.196-.107.011.435-.099 1.379-.321 2.005-.559 1.56-1.905 2.11-3.266 1.287-1.263 1.28-2.65 1.495-3.768 1.143-1.02-.323-1.853-2.08-1.515-3.534.207-.89.544-1.603 1.417-2.41.343-.316.804-.64 1.26-.96.7-.49 1.388-.974 1.62-1.409.302-.554.088-1.19-.519-1.042-1.001.237-2.672 2.094-3.445 2.953l-.003.003.018-2.908c.528-.862 1.658-2.298 3.035-2.788Zm-.405 8.544c-.11.686.295.939.555.996.294.068.85-.138.873-.71l.066-2.138c-.392.29-1.39 1.21-1.494 1.852Z" fill="#fff"/><path d="m49.304 13.967 1.058-.281-.031 5.183c-.007 1.835 1.163 2.53 1.882 2.75 1.504.461 3.048-.458 3.572-1.69.358-.84.354-1.792.306-2.291-.321.272-1.322 1.486-1.993.901-.229-.198-.261-.646-.261-1.568l.032-4.22 2.182-.583.02-2.507-2.167.578.038-2.801-1.067.283-3.543 5.012-.028 1.234Z" fill="#fff"/></svg>