<svg width="102" height="40" fill="none" xmlns="http://www.w3.org/2000/svg"><g clip-path="url(#a)" fill="#fff"><path d="M80.955 24.086c.302-1.228.624-2.447.968-3.66 2.438-1.177 6.93-1.69 10.454-1.461.505 1.69.968 3.399 1.391 5.12h6.522C97.665 14.782 94.153 6.172 90.526.11h-6.329c-3.627 6.061-7.14 14.672-9.764 23.976h6.522Zm6.407-18.334a88.742 88.742 0 0 1 3.26 7.875c-3.138.044-5.657.561-7.143 1.784a90.557 90.557 0 0 1 3.883-9.659Z"/><path d="M100.947 26.942c-6.6 2.472-14.357 4.75-25.355 4.75-19.335 0-32.881-4.75-50.787-4.75-7.486 0-13.891 1.188-18.022 2.525V.11H.413V36.79c6.91-2.24 14.203-4.363 24.392-4.363 17.482 0 30.295 7.182 50.787 7.182 11.114 0 19.682-2.008 26.822-5.444-.387-2.318-.889-4.711-1.467-7.222Z"/><path d="M48.076 24.588c3.164 0 6.56-.733 9.146-2.471v-5.83c-3.01 2.007-5.789 2.895-8.683 2.895-5.133 0-6.483-3.36-6.483-7.451 0-4.44 1.698-6.719 5.056-6.719 2.316 0 3.627 1.39 3.782 3.938h6.174C56.913 2.697 53.13-.392 47.11-.392c-8.335 0-11.5 5.482-11.5 12.122 0 7.606 3.204 12.858 12.466 12.858ZM17.398 20.426c2.438-1.177 6.93-1.69 10.454-1.461.505 1.69.968 3.399 1.39 5.12h6.523C33.14 14.782 29.628 6.172 26 .11h-6.329c-3.627 6.061-7.14 14.672-9.764 23.976h6.522c.3-1.227.624-2.447.968-3.66Zm5.438-14.674a88.742 88.742 0 0 1 3.26 7.875c-3.137.044-5.656.561-7.142 1.784a89.993 89.993 0 0 1 3.882-9.659ZM64.593 24.086h6.367V5.515h6.368V.11H58.225v5.405h6.368v18.57Z"/></g><defs><clipPath id="a"><path fill="#fff" d="M0 0h102v40H0z"/></clipPath></defs></svg>