<svg width="108" height="40" fill="none" xmlns="http://www.w3.org/2000/svg"><g clip-path="url(#a)" fill="#fff"><path d="M96.105 22.12c-.566-.364-.93-.901-1.004-1.467L92.999 5.23c-.34-2.305-1.731-3.94-4.025-4.732-1.788-.623-4.08-.7-6.457-.226-1.915.383-4.921 1.3-7.322 2.636-.772-.465-1.681-.768-2.703-.892-1.061-.132-2.217-.087-3.442.147-1.99.374-4.028 1.214-5.593 2.306l-1.334.93-.247-1.82-10 1.364.722 5.315c1.272.038 2.48.858 2.631 1.872l1.867 13.705c.079.563-.13 1.173-.574 1.677a2.802 2.802 0 0 1-1.065.758l.63 4.636 12.337-1.68-.632-4.637c-.444-.05-.862-.201-1.23-.445-.563-.365-.928-.898-1.002-1.465l-1.875-13.755c-.062-.433.03-.841.32-1.258.465-.723 1.41-1.322 2.743-1.501 1.851-.25 3.08.778 3.212 1.675l2.833 20.79 10.402-1.417-.63-4.636a2.808 2.808 0 0 1-1.233-.445c-.563-.365-.923-.9-1.003-1.464l-1.867-13.72c-.063-.428.03-.839.317-1.254.466-.723 1.41-1.327 2.745-1.506 1.85-.246 3.08.78 3.214 1.677l2.826 20.75 10.4-1.414-.631-4.637a2.8 2.8 0 0 1-1.228-.444"/><path d="m58.65 23.687-1.904.26-.73-.573a9.005 9.005 0 0 0 .981-1.995l1.312-.178-.303-2.244-3.446.47a9.058 9.058 0 0 1-.918 2.1l-2.52-1.972c1.392-1.065 2.592-2.312 2.359-3.954-.257-1.85-2.288-3.165-4.991-2.81-1.934.256-3.202 1.29-3.685 2.49-.193.48-.26.994-.191 1.489.17 1.224.784 1.884 1.85 2.742-1.536 1.09-2.845 2.38-2.644 4.29.263 2.49 2.895 3.936 6.024 3.52 1.575-.201 3.032-.857 4.243-1.825l1.163.915 3.701-.505-.3-2.22Zm-9.074 1.134c-1.255.167-2.35-.29-2.506-1.396-.092-.663.609-1.36 1.644-2.146l3.114 2.444c-.701.59-1.469.998-2.252 1.098Zm-.725-10.056c.904-.125 1.663.311 1.764 1.061.11.78-.67 1.42-1.652 2.057-.56-.42-1.45-1.055-1.519-1.576-.105-.75.504-1.42 1.407-1.542Z"/><path d="M44.387 29.166c-.564-.361-.927-.9-1.003-1.465l-2.102-15.423c-.338-2.304-1.729-3.94-4.023-4.736-1.79-.618-4.08-.695-6.457-.223-1.918.38-4.92 1.3-7.322 2.636-.773-.466-1.68-.768-2.705-.894-1.06-.131-2.218-.084-3.439.15-1.993.373-4.029 1.212-5.593 2.305l-1.336.928-.246-1.818L.16 11.99l.725 5.312c1.271.038 2.478.862 2.63 1.876L5.38 32.879c.079.566-.127 1.178-.573 1.68a2.806 2.806 0 0 1-1.065.758l.63 4.637 12.336-1.681-.631-4.637a2.83 2.83 0 0 1-1.23-.445c-.566-.362-.929-.9-1.005-1.465L11.969 17.97c-.063-.429.03-.84.318-1.258.469-.723 1.41-1.321 2.745-1.5 1.851-.249 3.081.779 3.214 1.674l2.832 20.791 10.402-1.415-.631-4.638a2.807 2.807 0 0 1-1.233-.445c-.563-.363-.927-.898-1-1.464l-1.869-13.72c-.067-.43.028-.839.315-1.257.47-.72 1.41-1.324 2.746-1.504 1.85-.248 3.078.782 3.214 1.674l2.828 20.758 10.4-1.418-.634-4.636a2.84 2.84 0 0 1-1.229-.446M107.125 11.901c-.217-1.597-1.689-2.433-3.49-2.757-.786-.138-1.572-.213-2.265-.357-.49-.116-1.093-.256-1.202-.85-.102-.573.39-1.217 1.516-1.33 1.407-.14 2.315.79 2.803 1.553l1.478-.203-.475-3.49-1.939.245-.164.277c-.455-.112-1.323-.209-2.478-.064-2.195.284-3.88 1.808-3.63 3.72.212 1.54 1.533 2.34 3.212 2.657.806.155 1.782.26 2.492.416.498.12 1.119.28 1.235.909.106.61-.397 1.258-1.546 1.409-1.426.182-2.355-.853-2.96-1.684l-1.557.2.492 3.61 2.153-.29.168-.32c.597.17 2.139.384 3.495-.089 1.701-.593 2.88-1.967 2.662-3.562ZM95.355 1.848l2.418-.322-.884 3.258-2.425.327.89-3.263Z"/></g><defs><clipPath id="a"><path fill="#fff" d="M0 0h107.429v40H0z"/></clipPath></defs></svg>