<svg width="148" height="40" fill="none" xmlns="http://www.w3.org/2000/svg"><g clip-path="url(#a)" fill-rule="evenodd" clip-rule="evenodd" fill="#fff"><path d="M116.227 2.719c0-1.16-1.031-2.192-2.321-2.192h-3.225c-1.29 0-2.322 1.031-2.322 2.192l.129 34.572c0 1.16.903 2.193 2.193 2.193h3.225c1.29 0 2.321-1.032 2.321-2.193V2.72ZM120.356 3.75V5.3c0 .772.517 1.288 1.29 1.288h22.703c1.033 0 1.935-.901 1.935-1.933v-2.71c0-1.033-.902-2.064-1.935-1.934 0 0-21.93 2.193-22.703 2.321-.774 0-1.29.644-1.29 1.419ZM101.909 39.484c-5.676 0-9.16-4.257-9.16-9.03V16.65h-1.677c-.774 0-1.549-.774-1.549-1.548V12.78c0-.901.774-1.548 1.549-1.548h1.678V2.718c0-1.16.902-2.192 2.192-2.192h3.225c1.16 0 2.064 1.031 2.064 2.192v8.513h5.03c.904 0 1.549.646 1.549 1.548v2.323c0 .773-.644 1.548-1.549 1.548h-5.03v12.772c0 2.45 1.548 4.257 4.257 4.257h.516c.903 0 1.678.644 1.678 1.677v2.452c0 .903-.774 1.677-1.678 1.677h-3.095v-.001ZM63.209 24.907c0-7.352-4.386-14.705-14.32-14.705-9.158 0-14.189 7.222-14.189 14.705C34.7 32.904 40.117 40 49.018 40c6.064 0 11.998-3.096 13.158-8.384.129-.644-.387-1.677-1.29-1.677H56.5c-.773 0-1.418.386-1.806 1.032-1.29 1.805-3.096 2.708-5.676 2.708-3.87 0-6.45-2.968-6.708-6.32h18.446c1.68 0 2.453-.904 2.453-2.452Zm-20.77-3.095c.258-3.225 3.096-5.676 6.45-5.676 3.484 0 6.321 2.451 6.71 5.676h-13.16ZM147.059 24.907c0-7.352-4.386-14.705-14.32-14.705-9.159 0-14.188 7.222-14.188 14.705 0 7.997 5.418 15.093 14.318 15.093 6.063 0 11.996-3.096 13.158-8.384.129-.644-.388-1.677-1.29-1.677h-4.386c-.774 0-1.419.386-1.806 1.032-1.291 1.805-3.096 2.708-5.806 2.708-3.74 0-6.32-2.968-6.579-6.32h18.448c1.677 0 2.451-.904 2.451-2.452Zm-20.769-3.095c.257-3.225 3.095-5.676 6.449-5.676 3.484 0 6.322 2.451 6.58 5.676H126.29Z"/><path d="M86.558.913H26.96c-1.42 0-2.45 1.162-2.45 2.451l.128 23.48S11.867 3.623 11.222 2.46C10.578 1.3 9.158.269 7.352.269H2.452C1.03.269 0 1.43 0 2.72v34.313c0 1.42 1.032 2.452 2.45 2.452h3.096c1.419 0 2.452-1.032 2.452-2.452l-.13-23.992s12.9 23.348 13.546 24.251c.645 1.29 1.935 2.193 3.74 2.193h4.515c1.419 0 2.45-1.032 2.45-2.452V6.72h54.439c.902 0 1.676-.775 1.676-1.677V2.591c0-.904-.773-1.678-1.676-1.678Z"/><path d="M76.882 15.876c2.58 0 4.515.903 5.29 2.58.258.775.902.903 1.806.903h3.612c.517 0 1.29-.516 1.29-1.289 0-4.128-5.031-7.869-11.997-7.869-7.224 0-11.996 3.481-11.996 8.901 0 4.257 3.353 6.709 7.352 7.869 1.935.388 5.16 1.16 6.708 1.677 1.548.388 3.095.903 3.095 2.323 0 2.32-2.322 2.966-5.03 2.966-2.452 0-4.902-1.032-5.547-2.838-.387-1.032-1.162-1.16-2.194-1.16H65.66c-.645 0-1.418.644-1.418 1.418v.516c0 4 5.418 8.127 12.9 8.127 5.16 0 12.513-2.192 12.513-9.16 0-4.128-2.71-6.965-7.224-8.125-1.678-.388-5.805-1.548-6.708-1.679-1.678-.516-3.225-1.032-3.225-2.32 0-2.193 1.935-2.84 4.385-2.84Z"/></g><defs><clipPath id="a"><path fill="#fff" d="M0 0h147.059v40H0z"/></clipPath></defs></svg>