<svg width="155" height="40" fill="none" xmlns="http://www.w3.org/2000/svg"><g clip-path="url(#a)" fill="#fff"><path fill-rule="evenodd" clip-rule="evenodd" d="M57.675 32.459V19.297h-3.592v-7.292h3.592V6.37l8.987-3.54v9.174h5.31v7.298H66.65v10.755c0 1.658.843 2.26 2.93 2.26h2.102v7.042h-7.606c-4.059 0-6.4-3.06-6.4-6.87"/><path d="M111.55.04h-9.389v39.269h9.389V.039Z"/><path fill-rule="evenodd" clip-rule="evenodd" d="m114.455.033 9.35.007v39.269h-9.35V.033ZM81.55 22.05c0-1.659 1.983-3.842 4.732-3.842 2.983 0 4.837 2.471 4.837 3.841h-9.57Zm18.647 6.619a14.201 14.201 0 0 1-4.987 7.94 14.521 14.521 0 0 1-8.902 3.173c-7.884 0-14.096-6.523-14.096-14.615S78.424 10.48 86.308 10.48c7.885 0 14.265 6.568 14.265 14.66a13.81 13.81 0 0 1-.182 2.324H81.283a4.812 4.812 0 0 0 1.603 3.172 4.932 4.932 0 0 0 3.364 1.239 5.038 5.038 0 0 0 2.838-.885 4.939 4.939 0 0 0 1.824-2.322h9.285ZM43.65 12.005h8.93v27.323h-8.923v-2.65c-2.165 2.067-2.924 2.47-5.187 3.137-3.365.806-7.67-.717-9.298-2.926a9.524 9.524 0 0 1-2.003-5.87V12.004h8.89V28.01c0 2.759 1.53 4.622 3.838 4.622 2.114 0 3.754-1.844 3.754-4.622V12.005M8.567 39.29H-.388V12.004h8.955v2.663c2.165-2.074 2.924-2.478 5.187-3.15 3.352-.813 7.644.717 9.291 2.932a9.936 9.936 0 0 1 2.016 5.864V39.29h-8.94V23.285c0-2.753-1.505-4.61-3.833-4.61-2.1 0-3.74 1.838-3.74 4.61v16.004M134.354 25.622a6.011 6.011 0 0 1 1.113-3.324 6.122 6.122 0 0 1 2.788-2.162 6.211 6.211 0 0 1 3.533-.28 6.158 6.158 0 0 1 3.102 1.695 6.034 6.034 0 0 1 1.636 3.105 5.993 5.993 0 0 1-.376 3.481 6.08 6.08 0 0 1-2.262 2.695 6.195 6.195 0 0 1-3.394 1.012 6.262 6.262 0 0 1-4.374-1.856 6.101 6.101 0 0 1-1.766-4.366Zm-9.077.07c0-7.855 5.958-14.219 13.33-14.219a12.962 12.962 0 0 1 7.781 2.843v-2.311h9.168V39.32h-9.246V37.12c-1.945 1.92-4.778 2.779-7.78 2.779-7.321.032-13.299-6.37-13.299-14.206h.046Z"/></g><defs><clipPath id="a"><path fill="#fff" d="M0 0h155v40H0z"/></clipPath></defs></svg>