<svg width="93" height="40" fill="none" xmlns="http://www.w3.org/2000/svg"><g clip-path="url(#a)"><path fill-rule="evenodd" clip-rule="evenodd" d="M74.869.947c5.34-1.508 9.612-1.256 12.942.502 2.136 1.131 3.456 3.016 4.206 5.465.755 2.388.44 4.587-.753 6.66-1.885 3.393-5.529 5.78-10.87 7.225-1.716.58-3.622.813-5.386.904-1.985.103-3.825-.185-5.568-.458l-.04-.006-.438 1.132c-.377.754-.943 1.194-1.634 1.257l-15.393 4.397-.124.251c-.114 1.026-.537 1.74-1.411 2.1-.219.09-.37.133-.575.19l-.084.025-6.286 1.769c-1.194.313-2.136.063-3.079-.88l-.817-.817c.126.628 0 1.257-.314 2.01-.33.519-.766.966-1.308 1.184-.322.13-.41.15-.546.18-.087.018-.195.042-.395.1l-4.577 1.347c-.966.283-2.038.285-2.912-.297-.628-.566-1.068-1.194-1.131-1.885l-.314-.942c-2.01 3.014-5.466 5.214-10.492 6.596-5.34 1.57-9.738 1.319-13.068-.566-2.136-1.13-3.456-2.89-4.21-5.34-.628-2.387-.44-4.586.754-6.66 1.885-3.393 5.53-5.778 10.87-7.35 5.34-1.445 9.738-1.256 13.004.503.16-.954.632-1.64 1.454-2.02.226-.104.451-.154.68-.206.107-.024.214-.049.323-.078l10.109-2.785c3.016-.942 5.404-1.194 7.1-.88-.083-.357-.139-.511-.19-.653-.044-.122-.084-.235-.136-.46-.291-1.27.6-2.598 1.716-3.127.08-.037.148-.072.212-.104.18-.09.321-.161.566-.23L61.989 4.78a3.141 3.141 0 0 1 1.884.125c.628.315 1.132.754 1.446 1.383 2.198-2.45 5.34-4.21 9.55-5.34Zm.503 2.2c2.27-.643 4.304-.962 6.103-.956 2.039.005 3.774.425 5.205 1.267 1.578.928 2.622 2.268 3.141 4.086.738 2.58.036 4.936-2.196 7.1-1.852 1.795-4.53 2.999-7.856 3.96-4.717 1.364-8.5 1.415-11.308-.19-1.59-.909-2.64-2.327-3.141-4.086-.503-1.76-.28-3.436.628-5.026 1.606-2.808 4.715-4.824 9.424-6.156Zm5.464 3.99c-.653-.337-1.492-.492-2.355-.48-.67.01-1.358.12-1.98.322a6.803 6.803 0 0 0-3.14 2.133c-.799.958-1.033 2.08-.692 3.204.287.951.775 1.645 1.636 2.138 1.342.767 2.818.912 4.398.375 1.562-.53 2.741-1.326 3.453-2.57.545-.955.684-1.839.438-2.767-.256-.96-.644-1.896-1.758-2.355ZM62.617 6.98a1.29 1.29 0 0 1 .27-.021c.252.011.455.13.548.46l.502 2.074c.126.565.002.876-.375.94l-8.172 2.201c-.44.126-.628.317-.565.882l.253.813c.063.44.378.632.818.507l6.473-1.89c.314-.063.624.13.876.57l.629 2.07c.061.439 0 .755-.565.818l-6.346 1.884c-.44.126-.628.317-.565.882l.253.686c.063.44.373.633.813.57l8.294-2.328c.314-.126.63.004.819.444l.628 2.07c.148.49-.01.678-.502.817l-15.521 4.398c-.503.125-.815.002-.94-.375l-3.77-13.193c-.125-.44 0-.756.502-.945L62.617 6.98Zm-24.438 9.677c1.909-.53 3.457-.845 4.672-.882.945-.028 1.689.109 2.239.438.88.503 1.38 1.261 1.694 2.392.44 1.697-.313 3.136-2.323 4.52h-.063l-.253.19 5.094 4.059c.468.372.443.86-.158 1.03l-6.256 1.758c-.315.061-.566.004-.755-.249l-5.84-5.717c-.125-.126-.124-.254.064-.317l.565-.127c1.76-.502 2.802-1.078 3.141-1.758.164-.326.208-.633.064-1.066a1.368 1.368 0 0 0-1.257-.945 4.647 4.647 0 0 0-1.573.19l-1.885.565c-.502.063-.69.503-.628 1.256l2.513 8.986c.126.503.002.755-.375.818l-5.343 1.568c-.565.126-.876-.06-.94-.502L27.12 20.425c-.126-.44-.001-.756.501-.881l10.559-2.888Zm-25.636 4.582c2.267-.648 4.299-.963 6.097-.955 2.038.01 3.776.438 5.21 1.272 1.572.942 2.64 2.322 3.142 4.081.754 2.64.003 4.901-2.196 7.1-1.885 1.822-4.525 3.145-7.856 4.087-4.837 1.382-8.606 1.254-11.308-.317-1.57-.816-2.639-2.196-3.141-4.08-.503-1.76-.315-3.457.628-5.027 1.57-2.827 4.711-4.779 9.424-6.16Zm5.422 4.256a5.256 5.256 0 0 0-2.693-.666 5.521 5.521 0 0 0-1.663.307c-1.382.377-2.45 1.133-3.141 2.074-.754.943-1.064 2.074-.75 3.268.315.941.816 1.572 1.758 2.075 1.257.754 2.763.816 4.334.438 1.634-.565 2.83-1.382 3.522-2.64.565-.94.626-1.76.311-2.703-.197-.983-.817-1.676-1.678-2.153Z" fill="#fff"/></g><defs><clipPath id="a"><path fill="#fff" d="M0 0h92.447v40H0z"/></clipPath></defs></svg>