<svg width="173" height="40" fill="none" xmlns="http://www.w3.org/2000/svg"><g clip-path="url(#a)" fill-rule="evenodd" clip-rule="evenodd" fill="#fff"><path d="M35 5.455H6.364a.455.455 0 0 0-.455.454v28.182c0 .251.204.455.455.455H35a.455.455 0 0 0 .455-.455V5.909A.455.455 0 0 0 35 5.455ZM6.364 3.636A2.273 2.273 0 0 0 4.09 5.91v28.182a2.273 2.273 0 0 0 2.273 2.273H35a2.273 2.273 0 0 0 2.273-2.273V5.909A2.273 2.273 0 0 0 35 3.636H6.364Z"/><path d="M5.19 4.284c-.834.612-.886 1.401-1.011 15.255l-.132 14.608 1.132 1.136L6.31 36.42h28.454l.986-1.054c.97-1.036.986-1.294.986-15.48 0-13.819-.038-14.464-.907-15.336-.868-.873-1.511-.91-15.332-.91-11.738 0-14.59.12-15.306.645Zm42.168 2.361c-5.16 1.839-7.053 7.922-3.846 12.363.828 1.147 2.57 2.405 5.495 3.97 3.931 2.104 4.283 2.403 4.283 3.642 0 2.825-4.172 3.16-8.73.7l-2.381-1.285v6.729l1.661.697c.914.384 3.052.928 4.752 1.21 5.81.963 10.434-.854 12.22-4.8 2.216-4.9.099-8.85-6.521-12.172-3.014-1.511-4.856-2.963-4.856-3.826 0-1.081 1.67-2.04 3.555-2.04 1.794 0 5.69 1.458 6.228 2.33.74 1.203 1.128.09 1.008-2.899l-.134-3.3-2.948-1.009c-3.387-1.158-7.075-1.275-9.786-.31Zm43.077-.261c-2.967.59-4.974 1.604-7.135 3.604-2.915 2.698-4.07 5.672-4.076 10.496-.006 4.561 1.024 7.406 3.68 10.169 2.236 2.326 4.354 3.36 8.178 3.995 3.675.609 8.941.026 11.756-1.302l1.698-.8.134-3.3c.073-1.814-.016-3.299-.197-3.299-.182 0-1.184.415-2.228.922-4.874 2.37-9.17 2.162-12.294-.592-3.512-3.096-3.774-7.409-.666-10.963 2.515-2.877 8.162-3.454 12.466-1.275l2.559 1.296V7.812l-4.025-.949c-4.181-.985-6.692-1.108-9.85-.479Zm57.291-.004c-4.242 1.078-7.927 4.049-9.534 7.69-1.289 2.916-1.541 7.836-.574 11.175.945 3.265 4.254 6.994 7.419 8.36 4.119 1.78 11.095 1.675 14.747-.221 4.108-2.133 6.761-6.342 7.391-11.728.469-4.007-1.107-8.435-4.058-11.397-1.561-1.568-3.115-2.625-4.617-3.143-2.735-.943-8.426-1.332-10.774-.736ZM65.761 20.484v14.114h8.163V6.37h-8.163v14.114Zm50.115-10.13a6551.79 6551.79 0 0 0-5.759 13.772c-2.246 5.384-4.182 9.95-4.303 10.148-.12.197 1.676.3 3.992.228l4.211-.132.951-2.504.951-2.504H127.952l.993 2.504.993 2.504 4.023.133c3.681.12 4.005.062 3.805-.683-.121-.449-2.73-6.809-5.8-14.133l-5.58-13.317h-8.834l-1.676 3.984ZM21.21 8.64c-1.334.718-1.931.809-2.893.442-1.673-.639-3.754.123-5.715 2.091-1.557 1.564-6.595 10.938-6.129 11.406.132.133 1.458-.376 2.946-1.13l2.706-1.372.242 2.67c.258 2.86 2.022 6.695 4.404 9.574l1.319 1.594 2.104-2.049c2.426-2.36 3.695-4.594 4.117-7.243.163-1.024.383-1.863.49-1.863.105 0 .988.46 1.96 1.023 2.637 1.523 3.077.831 2.166-3.402-.393-1.821-.65-3.38-.571-3.463.078-.084 1.218.89 2.533 2.162 1.316 1.273 2.485 2.314 2.597 2.314.43 0-.395-5.535-1.065-7.143-1.108-2.663-2.906-4.722-4.929-5.644-2.41-1.1-4.194-1.09-6.282.033Zm.35.85c-.719.303-.513.435 1.068.69 2.56.41 4.423 1.38 6.512 3.39.936.899 1.731 1.389 1.769 1.088.18-1.452.113-1.686-.484-1.686-.353 0-.737-.285-.852-.633-.143-.431-.011-.518.415-.273.344.198-.077-.388-.937-1.303-1.582-1.681-2.162-2.1-1.564-1.129.23.375.071.428-.54.177-1.35-.552-4.4-.733-5.387-.32Zm-2.673.522c.285.376.619 1.093.741 1.594.212.865.226.862.276-.059.029-.532-.304-1.25-.741-1.593-.69-.543-.726-.536-.276.058Zm-2.785.645c-.749.336-1.953 1.242-2.677 2.015-.725.773-1.476 1.307-1.67 1.186-.194-.12-.5.021-.68.315-.205.332-.132.41.195.208.65-.404.666-.024.047 1.137-.262.492-.668.775-.902.63-.234-.146-.301.061-.149.459.221.578.605.376 1.922-1.014.906-.955 2.667-2.594 3.914-3.643 2.345-1.971 2.345-2.343 0-1.293Zm12.244.266c.452.5.923.91 1.048.91s-.143-.41-.594-.91c-.451-.501-.923-.91-1.048-.91-.124 0 .143.409.595.91ZM12.9 11.947l-1.332 1.48 1.473-1.337c.811-.736 1.474-1.402 1.474-1.48 0-.352-.374-.042-1.615 1.337Zm2.498 1.42c-3.368 2.816-5.676 5.188-5.36 5.506.405.407 6.894-3.611 7.694-4.763.967-1.394 1.521-3.187.984-3.187-.218 0-1.711 1.1-3.319 2.444Zm5.277-2.05c-.133.217.212.78.767 1.252l1.01.858-.907-1.082c-.901-1.074-.895-1.074.816.086.948.642 2.461 1.413 3.364 1.712 2.212.733 4.714 2.249 4.441 2.692-.122.197.134.628.567.957.654.496.698.496.258-.004-.292-.33-.435-.856-.316-1.166.324-.849-4.024-4.541-6.075-5.158-2.126-.64-3.588-.694-3.925-.147Zm-1.987 2.546c-.28.617-1.333 1.668-2.34 2.338-2.16 1.434-2.448 1.962-.426.78 1.482-.866 3.582-3.104 3.582-3.817 0-.714-.286-.469-.816.7Zm1.1.124c-.759 1.458-2.752 3.406-4.312 4.213-1.012.524-1.062.732-.792 3.32.348 3.351.003 3.256-.56-.155-.404-2.44-.411-2.449-.522-.653l-.113 1.82-.334-1.593-.334-1.593-.06 1.636c-.108 2.97 2.99 9.91 4.976 11.14.686.426 3.877-2.825 4.928-5.023 1.825-3.813 2.28-12.079.666-12.079-.359 0-.659-.153-.666-.341-.009-.188-.512-.704-1.118-1.147-1.085-.793-1.114-.785-1.76.455Zm3.544-.13c.485.39 1.08.708 1.323.708.576 0 .319-.21-1.07-.874-1.068-.51-1.083-.502-.253.166Zm125.078.25c-2.213 1.355-3.28 3.43-3.28 6.377 0 2.947 1.067 5.022 3.28 6.376 3.06 1.873 7.84.74 9.604-2.274 1.242-2.124 1.183-6.2-.121-8.316-1.827-2.968-6.446-4.022-9.483-2.162Zm-28.499 4.898-1.86 4.893 1.973.14c1.085.075 2.861.075 3.947 0l1.972-.14-1.859-4.893c-1.023-2.692-1.962-4.893-2.087-4.893-.124 0-1.063 2.201-2.086 4.893Zm-96.743-2.809c.022.53.13.639.274.276.131-.329.115-.722-.036-.873-.15-.151-.258.117-.238.597Zm1.705 1.737c.106 1.726.418 2.723 1.023 3.273.478.434 1.006.653 1.172.487.536-.538-.955-5.97-1.677-6.11-.541-.106-.642.349-.518 2.35Zm2.794-2.262c0 .126.408.447.907.715.5.268.907.385.907.26s-.408-.447-.907-.715c-.499-.268-.907-.385-.907-.26Zm-5.551 2.463c.195 2.038-.115 4.17-1.045 7.186-.146.47.086.245.513-.5.907-1.58 1.411-7.036.758-8.207-.325-.584-.388-.163-.226 1.521Zm9.705-1.293c0 .627.102.883.228.57.126-.313.126-.825 0-1.139-.126-.312-.229-.056-.229.57Zm-4.257 2.544c.364 1.631.53 3.098.369 3.26-.161.163-.95-.068-1.754-.51l-1.46-.807 1.071.944c1.16 1.022 2.115 1.206 2.554.493.325-.527-.647-5.852-1.121-6.145-.177-.11-.024 1.134.34 2.765ZM8.71 18.9c-1.061 2.194-.943 2.385.816 1.321 1.097-.664 1.1-.676.08-.398-1.047.286-1.049.28-.306-1.162.41-.796.668-1.528.571-1.624-.095-.097-.618.742-1.16 1.863Zm3.99-.465c-.623.358-.917.658-.653.667.264.009.876-.285 1.36-.652 1.12-.85.762-.858-.707-.015Zm7.846 1.594c0 1.377.085 1.94.189 1.252.104-.689.104-1.816 0-2.505-.104-.688-.189-.125-.189 1.253Zm3.075-1.556c.021.53.129.638.273.275.132-.328.115-.721-.035-.873-.151-.15-.258.118-.239.598Zm-7.01.435c-.155.407-.251 1.798-.214 3.093l.07 2.353.3-2.96c.323-3.166.292-3.657-.155-2.486Zm6.556 3.207c.022.53.13.639.274.276.131-.33.115-.722-.036-.873-.15-.151-.258.117-.238.597Zm-9.529 1.328c-.042 1.275 2.363 6.196 3.543 7.25.977.873.989.87 2.614-.682 1.627-1.554 3.328-4.586 3.303-5.885-.008-.376-.41.352-.895 1.616-.485 1.264-1.589 2.987-2.453 3.828l-1.573 1.53-.933-1.097c-1.262-1.481-2.311-3.456-3.002-5.65-.316-1-.587-1.41-.604-.91Zm6.354-.379c-.02.293-.153.908-.297 1.366-.248.793-.235.794.26.02.286-.447.419-1.062.296-1.366-.16-.398-.233-.403-.259-.02Z"/><path d="M166.818 1.818H5.909A4.09 4.09 0 0 0 1.82 5.91v28.182a4.09 4.09 0 0 0 4.09 4.09h160.909a4.09 4.09 0 0 0 4.091-4.09V5.909a4.09 4.09 0 0 0-4.091-4.09ZM5.909 0A5.91 5.91 0 0 0 0 5.91v28.18A5.91 5.91 0 0 0 5.91 40h160.908a5.909 5.909 0 0 0 5.909-5.91V5.91A5.909 5.909 0 0 0 166.818 0H5.909Z"/></g><defs><clipPath id="a"><path fill="#fff" d="M0 0h172.727v40H0z"/></clipPath></defs></svg>