<svg width="640" height="592" viewBox="0 0 640 592" fill="none" xmlns="http://www.w3.org/2000/svg">
<path d="M319.7 591.728C483.102 591.728 615.565 459.265 615.565 295.864C615.565 132.463 483.102 0 319.7 0C156.299 0 23.8361 132.463 23.8361 295.864C23.8361 459.265 156.299 591.728 319.7 591.728Z" fill="#80C7D3"/>
<path d="M319.7 548.703C459.339 548.703 572.539 435.503 572.539 295.864C572.539 156.225 459.339 43.025 319.7 43.025C180.061 43.025 66.8611 156.225 66.8611 295.864C66.8611 435.503 180.061 548.703 319.7 548.703Z" fill="#F4F2DC"/>
<path d="M319.7 551.359C178.939 551.359 64.2054 436.625 64.2054 295.864C64.2054 155.103 178.939 40.3691 319.7 40.3691C460.462 40.3691 575.195 155.103 575.195 295.864C575.195 436.625 460.462 551.359 319.7 551.359ZM319.7 45.6808C182.126 45.6808 70.0484 157.759 70.0484 295.333C70.0484 432.907 182.126 544.985 319.7 544.985C457.275 544.985 569.352 432.907 569.352 295.333C569.352 157.759 457.275 45.6808 319.7 45.6808Z" fill="#F4F2DC"/>
<g opacity="0.2">
<g opacity="0.2">
<path opacity="0.2" d="M135.914 449.374H134.321C121.573 448.843 110.949 446.187 102.45 440.875C93.9515 436.094 88.1085 429.189 83.8591 421.753C79.6098 413.785 78.0162 405.818 78.0162 397.319C78.0162 387.226 80.6721 377.665 86.515 369.167C91.8268 360.137 100.326 354.294 110.949 351.107H112.011C113.074 351.107 114.136 351.638 115.198 352.169C116.261 353.231 116.261 353.762 116.261 354.825V355.356C115.73 359.074 115.198 361.73 115.198 364.917C115.198 370.76 116.261 375.009 118.385 378.196C120.51 381.383 122.635 383.508 125.291 385.102C127.947 386.164 130.603 387.226 132.727 387.226H134.852C142.82 387.226 149.725 384.039 155.568 377.134C161.411 370.229 166.722 361.73 170.972 351.638C175.221 341.545 178.408 331.453 180.533 320.83C176.284 319.236 172.034 318.174 168.316 318.174C165.66 318.174 163.535 318.705 161.942 319.767C159.817 320.83 158.224 322.423 157.161 325.079C156.63 326.673 156.099 328.797 156.099 330.391C156.099 333.047 156.63 335.171 158.224 336.765C159.286 338.89 161.411 339.421 164.067 339.421H166.722C167.254 339.421 167.785 339.952 168.316 340.483C168.847 341.545 169.378 342.077 169.378 343.139V344.201C167.254 350.044 164.066 354.294 159.817 356.949C155.568 359.605 150.787 360.668 145.475 360.668C136.977 360.668 128.478 357.481 120.51 351.107C115.73 346.857 112.543 342.608 110.949 337.827C109.356 333.047 108.293 328.266 108.293 324.017C108.293 320.299 108.824 316.58 109.356 313.924C112.543 302.239 117.854 294.271 126.353 288.959C134.852 284.179 143.882 281.523 154.505 281.523C159.286 281.523 164.066 282.054 168.847 282.585C176.284 283.647 183.72 285.772 190.625 288.959C193.281 284.179 195.937 280.992 199.655 278.867C202.842 276.742 206.56 275.68 210.279 275.68C212.935 275.68 215.59 276.211 218.246 277.273C224.089 279.929 228.339 283.116 230.994 287.366C233.65 291.615 234.713 296.396 234.713 301.176C234.713 307.019 233.119 312.862 229.401 318.174C225.683 323.486 220.902 326.673 213.997 328.797C218.246 344.733 223.558 357.481 228.87 367.573C231.526 372.885 233.65 377.134 234.713 381.384V375.541C234.713 368.635 235.244 358.543 236.837 344.733C238.431 330.922 241.618 317.643 247.461 304.363C253.304 291.615 261.803 282.054 274.02 276.742C279.863 274.086 285.705 273.024 291.017 273.024C299.516 273.024 306.952 275.68 312.795 280.46C318.638 285.241 323.419 291.084 326.606 297.989C329.793 304.894 331.386 311.269 331.386 316.58C331.386 317.643 330.855 318.705 330.324 319.767C329.793 320.83 328.731 321.361 327.668 321.361C327.137 321.361 326.075 320.83 325.012 320.299C318.107 314.987 311.202 312.331 304.297 312.331C296.329 312.331 289.424 314.987 282.518 320.299C276.144 325.61 270.833 333.047 267.646 342.077C264.458 351.107 261.803 360.668 260.209 370.76C258.616 381.384 257.022 391.476 255.96 401.037C254.366 421.222 251.179 435.032 246.93 443C245.336 444.593 242.68 445.656 238.962 445.656C235.244 445.656 231.526 445.124 227.807 443.531C224.089 441.937 221.965 440.344 221.965 438.219C221.965 437.157 222.496 436.626 223.027 435.563C223.558 435.032 223.558 433.97 223.558 432.376C223.558 426.533 221.433 417.503 217.184 404.224C212.935 391.476 208.154 378.728 203.905 366.511C200.186 378.196 195.937 388.82 191.688 398.381C187.969 406.88 183.72 414.847 178.408 422.284C173.096 429.72 167.254 435.563 160.348 439.813C152.912 447.249 144.944 449.374 135.914 449.374ZM218.777 299.583C218.777 299.052 219.309 298.52 219.309 297.458C219.84 296.396 219.84 295.333 219.84 294.802C219.84 294.271 219.84 293.74 219.84 293.74C219.84 293.74 219.309 294.271 219.309 294.802C219.309 295.333 218.777 295.865 218.777 296.927C218.777 297.989 218.777 298.52 218.777 299.052V299.583Z" fill="#010101"/>
</g>
<g opacity="0.2">
<path opacity="0.2" d="M311.201 441.406H309.607C299.515 441.406 291.016 439.281 284.642 435.563C278.268 431.845 273.487 426.533 270.3 420.159C267.113 413.785 265.52 406.88 265.52 399.443C265.52 385.633 270.3 371.822 279.861 359.074C289.422 346.326 302.702 338.89 320.23 336.765H325.011C332.447 336.765 338.29 338.358 342.54 341.014C346.789 343.67 349.976 347.388 352.101 352.169C354.226 356.418 355.288 361.73 355.288 366.511C355.288 373.416 353.694 380.321 351.039 387.226C348.383 394.132 344.665 399.975 339.884 404.224C335.103 409.005 330.323 411.129 324.48 411.129C319.168 411.129 313.856 408.473 308.545 403.162V404.755C308.545 408.473 310.138 412.192 312.794 414.847C315.45 417.503 319.168 419.097 323.418 419.097H325.542C341.477 416.441 352.632 406.349 359.006 388.289C361.131 385.102 363.256 383.508 366.443 383.508C368.567 383.508 370.161 384.039 372.286 385.102C373.879 386.164 374.941 387.758 374.941 389.882C374.941 390.945 374.941 391.476 374.41 392.538C363.256 423.877 342.54 440.344 311.201 441.406ZM317.575 380.321C320.762 380.321 324.48 378.196 328.198 373.947C331.916 369.698 333.51 365.448 333.51 360.668C333.51 356.95 331.916 354.294 328.198 351.638H327.667C326.605 351.638 325.011 353.762 322.886 357.481C320.762 361.199 319.168 365.448 317.043 369.698C315.45 373.947 314.388 377.134 313.856 379.259C315.45 379.79 316.512 380.321 317.575 380.321Z" fill="#010101"/>
</g>
<g opacity="0.2">
<path opacity="0.2" d="M393.534 500.367H389.816C380.786 498.773 373.349 495.055 368.038 488.681C362.195 482.307 359.539 474.87 359.539 465.84C359.539 459.997 361.132 454.154 364.319 448.311C365.382 446.718 366.444 446.187 368.038 446.187C369.1 446.187 370.162 446.718 370.694 447.249C372.287 448.843 374.412 450.436 377.599 452.03C380.786 453.623 383.442 454.686 386.098 455.217H388.222C391.941 455.217 394.596 453.623 397.252 450.967C399.908 447.78 401.502 444.593 403.095 440.875C404.689 437.157 405.751 433.439 406.813 430.252C399.377 435.032 392.472 437.688 386.098 437.688C379.192 437.688 373.349 435.563 368.038 431.314C362.726 427.064 359.008 421.222 356.883 413.254C355.821 409.005 355.29 405.286 355.29 401.037C355.29 390.413 357.945 380.852 363.257 371.822C368.569 362.792 375.474 354.825 382.911 349.513C390.878 343.67 398.846 341.014 406.282 341.014C411.063 341.014 415.312 342.608 419.562 345.264L419.03 342.608C419.03 341.014 420.093 339.952 421.686 338.89C424.342 337.827 426.998 337.296 430.185 337.296C434.434 337.296 438.684 338.358 442.933 340.483C447.183 342.608 450.901 345.795 453.026 350.575C454.619 353.762 455.681 359.605 455.681 367.573C455.681 375.541 454.619 385.633 453.026 396.788C451.432 407.942 448.776 419.628 445.589 431.845C442.402 444.062 438.153 454.686 432.841 465.309C428.06 475.401 422.217 483.9 415.312 490.805C408.938 497.18 401.502 500.367 393.534 500.367ZM403.095 393.6C406.282 393.6 409.469 392.538 411.594 389.882C414.25 387.226 415.843 384.571 417.437 381.384L418.499 375.541V375.009C418.499 372.354 417.437 370.229 415.312 367.573C413.187 364.917 411.063 363.855 408.938 363.855C405.22 364.386 402.564 366.511 399.908 371.291C397.783 375.541 396.721 380.321 396.721 384.571C396.721 387.226 397.252 388.82 397.783 390.945C398.846 392.538 399.908 393.6 402.033 394.132H403.095V393.6Z" fill="#010101"/>
</g>
<g opacity="0.2">
<path opacity="0.2" d="M507.736 439.813C494.456 439.813 483.302 435.563 474.272 426.533C464.711 416.972 460.461 406.349 460.461 393.069V389.351C461.524 377.134 465.773 367.042 473.209 358.012C480.646 348.982 490.207 343.139 501.362 340.483C501.893 340.483 502.955 340.483 504.018 340.483C505.08 340.483 506.142 340.483 507.205 341.014C508.267 341.545 509.329 342.077 509.861 343.139C513.048 340.483 516.766 339.421 521.015 339.421C526.858 339.421 533.232 341.545 539.075 345.264C544.918 348.982 549.699 353.762 552.886 358.543C558.729 367.573 561.384 376.603 561.384 385.633C561.384 394.663 558.729 403.693 553.948 411.66C549.167 419.628 542.793 426.533 534.295 431.845C526.858 437.157 517.828 439.813 507.736 439.813ZM508.267 395.194C513.048 395.194 517.297 393.6 521.546 390.413C525.265 387.226 528.452 383.508 530.045 378.196C531.108 375.009 531.108 372.353 531.108 370.229C531.108 366.511 530.045 363.855 528.452 362.261C526.858 360.668 524.733 359.605 522.609 359.605C520.484 359.605 518.891 360.136 517.297 361.73C515.703 362.792 515.172 364.917 515.172 367.042C515.172 368.104 515.703 369.698 516.235 371.291C516.766 372.354 517.828 372.885 519.422 373.416C521.015 373.947 522.078 373.947 523.14 373.947C523.671 373.947 524.202 373.947 524.733 373.947C525.265 373.947 525.265 373.947 525.796 374.478V375.009C525.796 376.603 524.202 378.196 521.015 380.321C517.828 382.446 514.11 383.508 510.392 383.508C506.673 383.508 503.486 381.915 500.299 378.728C497.644 375.541 496.581 372.354 496.581 368.104C496.581 365.979 497.112 363.855 497.644 361.73C493.394 366.511 491.801 371.822 491.801 377.134C491.801 381.383 492.863 384.571 494.988 387.758C497.112 390.945 500.831 393.069 505.08 394.132C506.142 395.194 507.205 395.194 508.267 395.194Z" fill="#010101"/>
</g>
</g>
<path d="M132.727 446.187H131.133C118.385 445.656 107.761 443 99.2627 437.688C90.7639 432.907 84.921 426.002 80.6716 418.566C76.4222 410.598 74.8287 402.63 74.8287 394.132C74.8287 384.039 77.4845 374.478 83.3275 365.979C88.6392 356.949 97.138 351.106 107.761 347.919H108.824C109.886 347.919 110.949 348.451 112.011 348.982C113.073 350.044 113.073 350.575 113.073 351.638V352.169C112.542 355.887 112.011 358.543 112.011 361.73C112.011 367.573 113.073 371.822 115.198 375.009C117.323 378.196 119.447 380.321 122.103 381.915C124.759 382.977 127.415 384.039 129.54 384.039H131.664C139.632 384.039 146.537 380.852 152.38 373.947C158.223 367.042 163.535 358.543 167.784 348.451C172.034 338.358 175.221 328.266 177.345 317.642C173.096 316.049 168.846 314.987 165.128 314.987C162.472 314.987 160.348 315.518 158.754 316.58C156.63 317.642 155.036 319.236 153.974 321.892C153.442 323.485 152.911 325.61 152.911 327.204C152.911 329.859 153.442 331.984 155.036 333.578C156.098 335.702 158.223 336.234 160.879 336.234H163.535C164.066 336.234 164.597 336.765 165.128 337.296C165.659 338.358 166.191 338.889 166.191 339.952V341.014C164.066 346.857 160.879 351.106 156.629 353.762C152.38 356.418 147.6 357.481 142.288 357.481C133.789 357.481 125.29 354.294 117.323 347.919C112.542 343.67 109.355 339.421 107.761 334.64C106.168 329.859 105.106 325.079 105.106 320.83C105.106 317.111 105.637 313.393 106.168 310.737C109.355 299.051 114.667 291.084 123.166 285.772C131.664 280.991 140.694 278.336 151.318 278.336C156.098 278.336 160.879 278.867 165.659 279.398C173.096 280.46 180.532 282.585 187.438 285.772C190.093 280.991 192.749 277.804 196.468 275.68C199.655 273.555 203.373 272.493 207.091 272.493C209.747 272.493 212.403 273.024 215.059 274.086C220.902 276.742 225.151 279.929 227.807 284.178C230.463 288.428 231.525 293.208 231.525 297.989C231.525 303.832 229.932 309.675 226.213 314.987C222.495 320.298 217.715 323.485 210.809 325.61C215.059 341.545 220.37 354.293 225.682 364.386C228.338 369.698 230.463 373.947 231.525 378.196V374.478C231.525 367.573 232.056 357.481 233.65 343.67C235.243 329.859 238.43 316.58 244.273 303.301C250.116 290.553 258.615 280.991 270.832 275.68C276.675 273.024 282.518 271.961 287.83 271.961C296.328 271.961 303.765 274.617 309.608 279.398C315.451 284.178 320.231 290.021 323.418 296.927C326.605 303.832 328.199 310.206 328.199 315.518C328.199 316.58 327.668 317.642 327.136 318.705C326.605 319.767 325.543 320.298 324.481 320.298C323.949 320.298 322.887 319.767 321.825 319.236C314.919 313.924 308.014 311.268 301.109 311.268C293.141 311.268 286.236 313.924 279.331 319.236C272.957 324.548 267.645 331.984 264.458 341.014C261.271 350.044 258.615 359.605 257.021 369.698C255.428 380.321 253.834 390.413 252.772 399.975C251.178 420.159 247.991 433.97 243.742 441.937C242.149 443.531 239.493 444.593 235.774 444.593C232.056 444.593 228.338 444.062 224.62 442.468C220.902 440.875 218.777 439.281 218.777 437.157C218.777 436.094 219.308 435.563 219.839 434.501C220.37 433.97 220.37 432.907 220.37 431.314C220.37 425.471 218.246 416.441 213.996 403.162C209.747 390.413 204.966 377.665 200.717 365.448C196.999 377.134 192.749 387.758 188.5 397.319C184.782 405.817 180.532 413.785 175.221 421.222C169.909 428.658 164.066 434.501 157.161 438.75C149.724 444.062 141.757 446.187 132.727 446.187ZM215.59 296.395C215.59 295.864 216.121 295.333 216.121 294.271C216.652 293.208 216.652 292.146 216.652 291.615C216.652 291.084 216.652 290.553 216.652 290.553C216.652 290.553 216.121 291.084 216.121 291.615C216.121 292.146 215.59 292.677 215.59 293.74C215.59 294.802 215.59 295.333 215.59 295.864V296.395Z" fill="#58371B"/>
<path d="M308.014 438.219H306.421C296.328 438.219 287.829 436.094 281.455 432.376C275.081 428.658 270.301 423.346 267.114 416.972C264.458 410.067 262.864 403.161 262.864 395.725C262.864 381.914 267.645 368.104 277.206 355.356C286.767 342.608 300.046 335.171 317.575 333.046H322.356C329.792 333.046 335.635 334.64 339.885 337.296C344.134 339.952 347.321 343.67 349.446 348.45C351.57 352.7 352.633 358.012 352.633 362.792C352.633 369.697 351.039 376.603 348.383 383.508C345.727 390.413 342.009 396.256 337.229 400.506C332.448 405.286 327.668 407.411 321.825 407.411C316.513 407.411 311.201 404.755 305.889 399.443V401.037C305.889 404.755 307.483 408.473 310.139 411.129C312.795 413.785 316.513 415.378 320.762 415.378H322.887C338.822 412.723 349.977 402.63 356.351 384.57C358.476 381.383 360.6 379.79 363.787 379.79C365.912 379.79 367.506 380.321 369.63 381.383C371.224 382.446 372.286 384.039 372.286 386.164C372.286 387.226 372.286 387.757 371.755 388.82C360.069 420.69 339.353 437.157 308.014 438.219ZM314.388 377.134C317.575 377.134 321.293 375.009 325.012 370.76C328.73 366.51 330.323 362.261 330.323 357.48C330.323 353.762 328.73 351.106 325.012 348.45H324.48C323.418 348.45 321.825 350.575 319.7 354.293C317.575 358.012 315.982 362.261 313.857 366.51C312.263 370.76 311.201 373.947 310.67 376.072C312.263 376.603 313.326 377.134 314.388 377.134Z" fill="#58371B"/>
<path d="M390.347 497.179H386.628C377.599 495.586 370.162 491.868 364.85 485.494C359.007 479.12 356.352 471.683 356.352 462.653C356.352 456.81 357.945 450.967 361.132 445.124C362.194 443.531 363.257 443 364.85 443C365.913 443 366.975 443.531 367.506 444.062C369.1 445.656 371.224 447.249 374.411 448.843C377.599 450.436 380.254 451.498 382.91 452.03H385.035C388.753 452.03 391.409 450.436 394.065 447.78C396.721 444.593 398.314 441.406 399.908 437.688C401.501 433.97 402.564 430.252 403.626 427.064C396.19 431.845 389.284 434.501 382.91 434.501C376.005 434.501 370.162 432.376 364.85 428.127C359.539 423.877 355.82 418.034 353.696 410.067C352.633 405.817 352.102 402.099 352.102 397.85C352.102 387.226 354.758 377.665 360.07 368.635C365.382 359.605 372.287 351.638 379.723 346.326C387.691 340.483 395.658 337.827 403.095 337.827C407.875 337.827 412.125 339.421 416.374 342.077L415.843 339.952C415.843 338.358 416.905 337.296 418.499 336.234C421.155 335.171 423.811 334.64 426.998 334.64C431.247 334.64 435.497 335.703 439.746 337.827C443.995 339.952 447.713 343.139 449.838 347.92C451.432 351.107 452.494 356.949 452.494 364.917C452.494 372.885 451.432 382.977 449.838 394.132C448.245 405.286 445.589 416.972 442.402 429.189C439.215 441.406 434.965 452.03 429.654 462.653C424.873 472.745 419.03 481.244 412.125 488.149C405.751 493.992 398.314 497.179 390.347 497.179ZM399.908 390.413C403.095 390.413 406.282 389.351 408.407 386.695C411.062 384.039 412.656 381.383 414.25 378.196L415.312 372.354V371.822C415.312 369.167 414.25 367.042 412.125 364.386C410 361.73 407.875 360.668 405.751 360.668C402.033 361.199 399.377 363.324 396.721 368.104C394.596 372.354 393.534 377.134 393.534 381.384C393.534 384.039 394.065 385.633 394.596 387.758C395.658 389.351 396.721 390.413 398.845 390.945H399.908V390.413Z" fill="#58371B"/>
<path d="M504.549 436.626C491.27 436.626 480.115 432.376 471.085 423.346C462.055 414.316 457.806 403.162 457.806 390.414V386.695C458.868 374.478 463.118 364.386 470.554 355.356C477.991 346.326 487.552 340.483 498.707 337.827C499.238 337.827 500.3 337.827 501.362 337.827C502.425 337.827 503.487 337.827 504.549 338.358C505.612 338.89 506.674 339.421 507.205 340.483C510.392 337.827 514.111 336.765 518.36 336.765C524.203 336.765 530.577 338.89 536.42 342.608C542.263 346.326 547.043 351.107 550.23 355.887C556.073 364.917 558.729 373.947 558.729 382.977C558.729 392.007 556.073 401.037 551.293 409.005C546.512 416.972 540.138 423.878 531.639 429.189C523.672 433.97 514.642 436.626 504.549 436.626ZM505.612 392.007C510.392 392.007 514.642 390.414 518.891 387.226C522.609 384.039 525.796 380.321 527.39 375.009C528.452 371.822 528.452 369.167 528.452 367.042C528.452 363.324 527.39 360.668 525.796 359.074C524.203 357.481 522.078 356.418 519.954 356.418C517.829 356.418 516.235 356.949 514.642 358.543C513.048 359.605 512.517 361.73 512.517 363.855C512.517 364.917 513.048 366.511 513.579 368.104C514.111 369.167 515.173 369.698 516.766 370.229C518.36 370.76 519.422 370.76 520.485 370.76C521.016 370.76 521.547 370.76 522.078 370.76C522.609 370.76 522.609 370.76 523.141 371.291V371.822C523.141 373.416 521.547 375.009 518.36 377.134C515.173 379.259 511.455 380.321 507.736 380.321C504.018 380.321 500.831 378.728 497.644 375.541C494.988 372.354 493.926 369.166 493.926 364.917C493.926 362.792 494.457 360.668 494.988 358.543C490.739 363.324 489.145 368.635 489.145 373.947C489.145 378.196 490.208 381.384 492.332 384.571C494.457 387.758 498.175 389.882 502.425 390.945C502.956 392.007 504.018 392.007 505.612 392.007Z" fill="#58371B"/>
<g opacity="0.2">
<g opacity="0.2">
<path opacity="0.2" d="M238.963 262.4C231.527 262.4 225.153 260.806 220.372 257.088C215.592 253.37 212.405 249.121 210.28 243.809C208.155 238.497 207.093 232.654 207.093 226.811C207.093 220.968 208.155 215.125 210.28 209.814H209.217C203.906 209.814 200.719 208.22 199.125 205.033C197.532 201.846 196.469 198.128 196.469 194.41C196.469 190.16 197 186.442 197.532 183.786C199.656 175.819 203.375 167.851 208.686 160.415C213.998 152.978 219.841 146.604 227.277 141.823C234.714 137.043 242.681 134.387 251.711 134.387C261.804 134.387 270.303 137.043 276.677 142.886C283.051 148.729 287.831 156.165 291.018 164.664C294.205 173.694 295.799 182.193 295.799 191.223L295.268 198.128C294.737 206.096 293.143 213.532 290.487 221.5C287.831 228.936 284.644 235.841 279.864 242.215C275.083 248.589 269.771 253.37 262.866 257.088C256.492 260.275 248.524 262.4 238.963 262.4ZM242.681 225.749C249.056 225.749 254.898 223.624 259.148 219.906C263.397 216.188 267.116 210.876 269.24 205.033C271.365 199.19 272.427 192.816 272.427 186.442C272.427 178.474 270.303 171.038 266.584 164.664C262.866 158.29 257.023 154.572 249.587 154.04H248.524C243.744 154.04 238.432 156.165 233.652 160.415C228.871 164.664 224.622 169.444 221.435 175.287C218.247 181.13 216.654 186.442 216.654 191.223V193.347C219.31 187.504 224.09 182.193 229.933 179.006C235.776 175.287 242.15 173.694 248.524 173.694C250.649 173.694 252.243 173.694 254.367 174.225C259.679 175.287 263.397 177.412 265.522 181.13C267.647 184.317 269.24 188.036 269.24 192.285C269.24 195.472 268.709 198.659 267.647 201.846C265.522 207.689 262.335 212.47 257.554 215.125C253.305 218.313 248.524 219.906 244.275 219.906C240.026 219.906 236.307 218.313 233.12 215.125C232.589 214.594 232.589 213.532 232.589 213.001L233.12 211.938C233.652 210.876 234.714 209.814 235.776 209.814C236.839 209.814 237.37 209.814 237.901 209.283C238.432 208.751 238.963 207.689 238.963 206.627V206.096C238.963 204.502 238.432 203.44 237.37 202.908C236.307 202.377 235.245 201.846 234.183 201.846C232.589 201.846 230.996 202.377 228.871 203.971C227.277 205.564 226.215 207.689 226.215 210.345V211.938C227.277 220.968 232.589 225.749 241.088 226.28H242.681V225.749ZM270.303 129.075H269.771C269.24 129.075 268.178 128.544 267.647 128.013C267.116 127.482 266.584 126.951 266.584 125.888C266.584 123.232 265.522 120.576 263.928 117.921C262.335 115.265 261.273 113.14 259.679 111.547C259.148 111.015 258.617 109.953 258.086 109.422C256.492 111.547 255.43 113.671 253.305 115.796C250.649 118.983 249.056 122.17 247.462 124.826C247.462 125.357 246.931 125.888 246.4 125.888C245.869 125.888 245.337 126.419 244.806 126.419C244.275 126.419 243.744 126.419 243.213 125.888C241.619 125.357 240.026 124.295 237.901 123.232C236.307 122.17 235.245 120.576 235.245 118.983C235.245 118.452 235.776 117.389 236.307 116.858C239.494 113.671 242.15 111.015 244.275 107.828C246.931 104.641 249.056 101.985 251.711 99.8607C253.836 97.736 256.492 96.6736 259.679 96.1425C263.397 96.1425 266.053 97.736 268.178 101.454C270.303 105.172 272.427 108.891 274.552 113.14C275.614 115.796 276.677 117.921 277.739 120.045C277.739 120.576 278.27 121.108 278.27 121.639C278.27 123.232 277.208 124.295 275.614 125.357C274.021 128.013 272.427 128.544 270.303 129.075Z" fill="#010101"/>
</g>
<g opacity="0.2">
<path opacity="0.2" d="M301.642 262.4C301.111 262.4 300.049 261.869 299.517 261.338C298.986 260.806 298.455 259.744 298.455 259.213C298.455 258.682 298.455 258.151 298.986 257.619L300.58 255.495C295.268 253.37 292.612 249.652 292.612 244.34C292.612 241.153 293.674 238.497 295.799 236.373C297.924 234.248 300.58 232.654 304.298 232.654C308.016 232.654 310.141 233.717 312.797 236.373C314.921 238.497 316.515 241.153 316.515 244.34C316.515 248.59 314.921 251.777 312.266 254.964C309.61 258.151 306.423 260.275 303.236 261.869C302.704 262.4 302.173 262.4 301.642 262.4Z" fill="#010101"/>
</g>
</g>
<path d="M235.776 259.213C228.339 259.213 221.965 257.62 217.185 253.901C212.404 250.183 209.217 245.934 207.092 240.622C204.968 235.31 203.905 229.467 203.905 223.624C203.905 217.782 204.968 211.939 207.092 206.627H206.03C200.718 206.627 197.531 205.033 195.938 201.846C194.344 198.659 193.282 194.941 193.282 191.223C193.282 186.973 193.813 183.255 194.344 180.599C196.469 172.632 200.187 164.664 205.499 157.228C210.81 149.791 216.653 143.417 224.09 138.637C231.526 133.856 239.494 131.2 248.524 131.2C258.616 131.2 267.115 133.856 273.489 139.699C279.863 145.542 284.644 152.978 287.831 161.477C291.018 170.507 292.611 179.006 292.611 188.036L292.08 194.941C291.549 202.909 289.955 210.345 287.3 218.313C284.644 225.749 281.457 232.654 276.676 239.029C271.895 245.403 266.584 250.183 259.678 253.901C253.304 257.088 245.337 259.213 235.776 259.213ZM239.494 222.562C245.868 222.562 251.711 220.437 255.96 216.719C260.21 213.001 263.928 207.689 266.053 201.846C268.177 196.003 269.24 189.629 269.24 183.255C269.24 175.288 267.115 167.851 263.397 161.477C259.678 155.103 253.836 151.385 246.399 150.854H245.337C240.556 150.854 235.244 152.978 230.464 157.228C225.683 161.477 221.434 166.258 218.247 172.101C215.06 177.943 213.466 183.255 213.466 188.036V190.16C216.122 184.318 220.903 179.006 226.746 175.819C232.589 172.101 238.963 170.507 245.337 170.507C247.461 170.507 249.055 170.507 251.18 171.038C256.491 172.101 260.21 174.225 262.334 177.943C264.459 181.131 266.053 184.849 266.053 189.098C266.053 192.285 265.521 195.472 264.459 198.659C262.334 204.502 259.147 209.283 254.367 211.939C250.117 215.126 245.337 216.719 241.087 216.719C236.838 216.719 233.12 215.126 229.933 211.939C229.402 211.407 229.402 210.345 229.402 209.814L229.933 208.752C230.464 207.689 231.526 206.627 232.589 206.627C233.651 206.627 234.182 206.627 234.713 206.096C235.244 205.565 235.776 204.502 235.776 203.44V202.909C235.776 201.315 235.244 200.253 234.182 199.722C233.12 199.19 232.057 198.659 230.995 198.659C229.402 198.659 227.808 199.19 225.683 200.784C224.09 202.377 223.027 204.502 223.027 207.158V208.752C224.09 217.782 229.402 222.562 237.9 223.093H239.494V222.562ZM267.115 125.888H266.584C266.053 125.888 264.99 125.357 264.459 124.826C263.928 124.295 263.397 123.764 263.397 122.701C263.397 120.045 262.334 117.39 260.741 114.734C259.147 112.078 258.085 109.953 256.491 108.36C255.96 107.828 255.429 106.766 254.898 106.235C253.304 108.36 252.242 110.484 250.117 112.609C247.461 115.796 245.868 118.983 244.274 121.639C244.274 122.17 243.743 122.701 243.212 122.701C242.681 122.701 242.15 123.233 241.619 123.233C241.087 123.233 240.556 123.233 240.025 122.701C238.432 122.17 236.838 121.108 234.713 120.045C233.12 118.983 232.057 117.39 232.057 115.796C232.057 115.265 232.589 114.203 233.12 113.671C236.307 110.484 238.963 107.828 241.087 104.641C243.743 101.454 245.868 98.7985 248.524 96.6738C250.649 94.5491 253.304 93.4867 256.491 92.9556C260.21 92.9556 262.866 94.5491 264.99 98.2673C267.115 101.986 269.24 105.704 271.364 109.953C272.427 112.609 273.489 114.734 274.551 116.858C274.551 117.39 275.083 117.921 275.083 118.452C275.083 120.045 274.02 121.108 272.427 122.17C270.833 124.826 269.24 125.357 267.115 125.888Z" fill="#CD1D63"/>
<path d="M298.455 259.213C297.924 259.213 296.861 258.682 296.33 258.151C295.799 257.62 295.268 256.558 295.268 256.026C295.268 255.495 295.268 254.964 295.799 254.433L297.392 252.308C292.081 250.183 289.425 246.465 289.425 241.153C289.425 237.966 290.487 235.311 292.612 233.186C294.737 231.061 297.392 229.468 301.111 229.468C304.298 229.468 306.954 230.53 309.609 233.186C311.734 235.311 313.328 237.966 313.328 241.153C313.328 245.403 311.734 248.59 309.078 251.777C306.422 254.964 303.235 257.089 300.048 258.682C299.517 259.213 298.986 259.213 298.455 259.213Z" fill="#CD1D63"/>
<g opacity="0.2">
<g opacity="0.2">
<path opacity="0.2" d="M396.19 324.547C393.003 324.547 389.816 323.485 386.629 321.36C383.973 318.704 382.38 315.517 382.38 311.268C382.38 307.55 382.911 303.3 384.504 298.52C386.098 294.27 387.691 290.021 389.285 285.772C390.878 281.522 393.534 277.273 396.721 271.961C397.253 270.367 397.784 269.305 398.315 268.243C398.846 267.18 398.846 266.118 398.846 265.056C398.846 263.993 398.315 263.462 397.784 262.4C397.253 261.337 396.19 260.806 395.128 260.806H394.065C390.878 260.806 388.223 263.462 386.098 268.243C383.973 273.023 381.848 278.866 380.255 285.772C378.661 292.677 377.599 299.051 376.537 305.425C376.006 311.799 375.474 316.048 375.474 318.704V319.235C375.474 320.298 374.412 321.36 373.35 321.891C371.756 322.423 370.163 322.954 368.038 322.954C364.851 322.954 361.664 322.423 357.946 321.36C354.227 320.298 351.04 318.704 348.385 316.58C345.729 314.455 344.135 311.799 344.135 308.612V307.018C345.729 298.52 347.853 291.083 350.509 284.709C353.696 277.804 355.821 268.774 357.946 258.682V256.026C357.946 254.432 357.946 253.37 357.414 252.308C356.883 251.245 356.883 250.183 356.352 249.652C355.821 248.589 355.29 247.527 355.29 246.996C355.29 246.465 355.29 245.933 355.821 245.402C356.883 243.809 359.539 243.278 363.257 243.278C366.976 243.278 370.694 244.34 374.943 246.465C379.193 248.589 381.848 252.308 383.442 257.619C386.098 254.432 389.285 251.245 393.003 249.12C396.19 246.996 399.908 245.933 403.627 245.933H404.158C408.938 245.933 412.657 246.996 414.781 249.12C416.906 251.245 418.5 253.901 419.031 257.088C421.687 253.901 424.342 251.776 428.061 249.652C431.248 247.527 435.497 246.996 439.747 246.996H442.402C449.308 247.527 453.557 249.652 456.213 252.308C458.869 255.495 459.931 258.682 459.931 262.931C459.931 266.118 459.4 269.836 458.338 273.023C457.275 276.742 456.213 280.46 455.151 283.647C454.088 286.834 453.557 289.49 452.495 292.677C451.964 295.333 451.432 297.989 451.432 300.113C451.432 302.238 451.964 303.831 453.026 305.425C454.088 307.018 455.682 307.55 458.338 308.081C459.4 308.081 459.931 308.612 460.462 309.143C460.993 309.674 461.525 310.206 461.525 311.268V312.33C460.462 316.048 457.806 319.235 454.088 321.36C450.37 323.485 446.652 324.547 441.871 324.547C438.153 324.547 434.966 324.016 431.248 322.423C428.061 320.829 424.874 318.704 422.749 315.517C420.624 312.33 419.562 308.081 419.562 302.769C419.562 300.113 420.093 296.926 420.624 293.739C421.687 291.083 423.28 287.365 425.405 283.116C426.998 280.46 428.592 277.273 429.654 274.617C430.717 271.961 431.779 269.836 431.779 267.712C431.779 265.587 430.717 264.525 428.592 264.525C425.936 264.525 423.811 267.712 420.624 273.554C417.968 279.929 415.313 286.834 413.188 294.27C411.063 302.238 410.001 308.081 410.001 312.861C410.001 314.986 410.001 316.048 410.532 317.111C410.532 317.642 410.532 317.642 410.532 318.173C410.532 319.235 410.001 319.767 409.47 320.298C407.876 321.36 406.283 322.954 403.627 324.547C402.564 323.485 399.377 324.547 396.19 324.547Z" fill="#010101"/>
</g>
<g opacity="0.2">
<path opacity="0.2" d="M494.989 320.829H493.926C486.49 320.829 480.116 319.236 475.335 316.58C470.555 313.393 466.837 309.674 464.712 304.894C462.056 300.113 460.994 294.802 460.994 289.49C460.994 278.866 464.712 268.774 471.617 259.213C479.054 249.652 489.146 243.809 501.894 242.215H505.612C510.924 242.215 515.705 243.278 518.892 245.402C522.079 247.527 524.734 250.183 526.328 253.37C527.922 256.557 528.453 260.275 528.453 264.525C528.453 269.836 527.39 274.617 525.266 279.929C523.141 285.24 520.485 289.49 516.767 292.677C513.049 295.864 509.33 297.989 505.081 297.989C501.363 297.989 497.113 295.864 493.395 291.614V292.677C493.395 295.333 494.458 297.989 496.582 300.113C498.707 302.238 501.363 303.3 504.55 303.3H506.143C518.36 301.176 526.328 293.739 531.109 279.929C532.702 277.804 534.296 276.742 536.42 276.742C538.014 276.742 539.607 277.273 540.67 278.335C541.732 279.397 542.794 280.46 542.794 282.053C542.794 282.585 542.794 283.116 542.263 284.178C534.296 308.081 518.36 320.298 494.989 320.829ZM499.769 275.148C502.425 275.148 505.081 273.555 507.737 270.368C510.393 267.18 511.986 263.993 511.986 260.806C511.986 258.151 510.393 256.026 507.737 253.901H507.206C506.143 253.901 505.081 255.495 503.488 258.151C501.894 260.806 500.301 263.993 499.238 267.18C498.176 270.368 497.113 273.023 497.113 274.617C498.176 275.148 498.707 275.148 499.769 275.148Z" fill="#010101"/>
</g>
<g opacity="0.2">
<path opacity="0.2" d="M586.881 319.767H585.818C578.913 319.236 573.07 314.455 569.352 305.425C561.916 314.455 555.541 318.704 549.699 318.704H548.636C541.2 317.642 535.888 314.986 533.232 310.737C530.576 306.487 528.983 301.707 528.983 296.395C528.983 291.083 530.045 285.24 531.639 279.398C533.232 273.555 534.826 268.243 536.95 262.931C539.606 256.026 540.669 251.245 540.669 248.589C540.669 248.058 540.669 247.527 540.137 246.996V245.402C540.137 244.34 540.669 243.278 541.731 242.747C544.918 240.622 548.636 239.559 553.417 239.559C555.01 239.559 556.604 239.559 558.197 240.091C561.916 240.622 564.571 242.215 566.165 244.34C567.758 246.465 568.29 249.121 568.29 252.308C568.29 255.495 567.758 258.682 566.696 262.4C565.634 266.118 564.571 269.836 563.509 273.023C560.853 278.866 559.791 283.647 559.791 287.365V289.49C559.791 291.083 560.853 292.677 561.384 293.739C562.447 294.802 563.509 295.333 564.571 295.333C565.634 295.333 566.165 294.802 566.696 294.27C567.758 293.208 569.352 289.49 571.477 283.647C573.601 277.804 575.195 270.899 577.32 264.525C578.913 257.619 579.975 252.839 579.975 250.183C579.975 249.652 579.976 249.121 579.444 248.589V246.996C579.444 245.934 579.976 244.871 581.038 244.34C583.694 243.278 586.881 242.747 589.537 242.747C593.786 242.747 597.504 243.809 601.223 245.934C604.41 248.058 606.534 251.777 606.534 256.026L606.003 259.213C604.941 264.525 603.347 269.836 601.223 275.148C598.567 280.991 597.504 285.772 597.504 288.428V289.49C598.035 292.146 598.567 293.739 600.16 294.27C600.691 294.802 601.223 294.802 601.754 294.802C603.347 294.802 604.941 293.208 606.534 290.552C608.128 287.896 609.721 284.178 610.784 280.46C611.315 279.398 611.846 278.335 612.908 277.804C613.971 277.273 615.033 276.742 616.095 276.742C617.689 276.742 619.283 277.273 620.345 278.335C621.407 279.398 621.938 280.46 621.938 282.053L621.407 284.178C619.282 290.021 617.158 295.864 613.971 301.176C610.784 306.487 607.065 311.268 602.816 314.986C598.035 318.173 593.255 319.767 586.881 319.767Z" fill="#010101"/>
</g>
</g>
<path d="M393.003 321.361C389.816 321.361 386.629 320.298 383.442 318.174C380.786 315.518 379.193 312.331 379.193 308.081C379.193 304.363 379.724 300.114 381.317 295.333C382.911 291.084 384.504 286.834 386.098 282.585C387.691 278.335 390.347 274.086 393.534 268.774C394.066 267.181 394.597 266.118 395.128 265.056C395.659 263.994 395.659 262.931 395.659 261.869C395.659 260.807 395.128 260.275 394.597 259.213C394.066 258.151 393.003 257.62 391.941 257.62H390.879C387.691 257.62 385.036 260.275 382.911 265.056C380.786 269.837 378.662 275.68 377.068 282.585C375.474 289.49 374.412 295.864 373.35 302.238C372.819 308.612 372.287 312.862 372.287 315.518V316.049C372.287 317.111 371.225 318.174 370.163 318.705C369.1 319.236 366.976 319.767 364.851 319.767C361.664 319.767 358.477 319.236 354.759 318.174C351.04 317.111 347.853 315.518 345.198 313.393C342.542 311.268 340.948 308.612 340.948 305.425V303.832C342.542 295.333 344.666 287.897 347.322 281.522C350.509 274.617 352.634 265.587 354.759 255.495V252.839C354.759 251.246 354.759 250.183 354.227 249.121C353.696 248.058 353.696 246.996 353.165 246.465C352.634 245.403 352.103 244.34 352.103 243.809C352.103 243.278 352.103 242.747 352.634 242.216C353.696 240.622 356.352 240.091 360.07 240.091C363.789 240.091 367.507 241.153 371.756 243.278C376.006 245.403 378.661 249.121 380.255 254.433C382.911 251.246 386.098 248.058 389.816 245.934C393.003 243.809 396.721 242.747 400.44 242.747H400.971C405.751 242.747 409.47 243.809 411.594 245.934C413.719 248.058 415.313 250.714 415.844 253.901C418.5 250.714 421.155 248.59 424.874 246.465C428.061 244.34 432.31 243.809 436.559 243.809H439.215C446.121 244.34 450.37 246.465 453.026 249.121C455.682 252.308 456.744 255.495 456.744 259.744C456.744 262.931 456.213 266.65 455.151 269.837C454.088 273.555 453.026 277.273 451.964 280.46C450.901 283.647 450.37 286.303 449.308 289.49C448.776 292.146 448.245 294.802 448.245 296.927C448.245 299.051 448.776 300.645 449.839 302.238C450.901 303.832 452.495 304.363 455.151 304.894C456.213 304.894 456.744 305.425 457.275 305.956C457.806 306.488 458.338 307.019 458.338 308.081V309.144C457.275 312.862 454.619 316.049 450.901 318.174C447.183 320.298 443.465 321.361 438.684 321.361C434.966 321.361 431.779 320.829 428.061 319.236C424.874 317.642 421.687 315.518 419.562 312.331C417.437 309.144 416.375 304.894 416.375 299.582C416.375 296.927 416.906 293.739 417.437 290.552C418.5 287.897 420.093 284.178 422.218 279.929C423.811 277.273 425.405 274.086 426.467 271.43C427.53 268.774 428.592 266.65 428.592 264.525C428.592 262.4 427.53 261.338 425.405 261.338C422.749 261.338 420.624 264.525 417.437 270.368C414.781 276.742 412.125 283.647 410.001 291.084C407.876 299.051 406.814 304.894 406.814 309.675C406.814 311.799 406.814 312.862 407.345 313.924C407.345 314.455 407.345 314.455 407.345 314.986C407.345 316.049 406.814 316.58 406.283 317.111C404.689 318.173 403.096 319.767 400.44 321.361C399.377 320.298 396.19 321.361 393.003 321.361Z" fill="#CD1D63"/>
<path d="M491.802 317.642H490.739C483.303 317.642 476.929 316.049 472.148 313.393C467.368 310.206 463.649 306.488 461.525 301.707C459.4 296.927 457.807 291.615 457.807 286.303C457.807 275.68 461.525 265.587 468.43 256.026C475.866 246.465 485.959 240.622 498.707 239.029H502.425C507.737 239.029 512.517 240.091 515.704 242.216C518.891 244.34 521.547 246.996 523.141 250.183C524.734 253.37 525.266 257.089 525.266 261.338C525.266 266.65 524.203 271.43 522.079 276.742C519.954 282.054 517.298 286.303 513.58 289.49C509.861 292.677 506.143 294.802 501.894 294.802C498.176 294.802 493.926 292.677 490.208 288.428V289.49C490.208 292.146 491.27 294.802 493.395 296.927C495.52 299.051 498.176 300.114 501.363 300.114H502.956C515.173 297.989 523.141 290.552 527.921 276.742C529.515 274.617 531.108 273.555 533.233 273.555C534.827 273.555 536.42 274.086 537.482 275.148C538.545 276.211 539.607 277.273 539.607 278.867C539.607 279.398 539.607 279.929 539.076 280.991C531.108 304.894 515.173 317.111 491.802 317.642ZM496.582 271.961C499.238 271.961 501.894 270.368 504.55 267.181C507.206 263.994 508.799 260.807 508.799 257.62C508.799 254.964 507.206 252.839 504.55 250.714H504.019C502.956 250.714 501.894 252.308 500.3 254.964C498.707 257.62 497.113 260.807 496.051 263.994C494.989 267.181 493.926 269.837 493.926 271.43C494.989 271.961 495.52 271.961 496.582 271.961Z" fill="#CD1D63"/>
<path d="M583.694 316.58H582.632C575.727 316.049 569.884 311.268 566.165 302.238C558.729 311.268 552.355 315.517 546.512 315.517H545.45C538.013 314.455 532.701 311.799 530.046 307.55C527.39 303.3 525.796 298.52 525.796 293.208C525.796 287.896 526.858 282.053 528.452 276.211C530.046 270.368 531.639 265.056 533.764 259.744C536.42 252.839 537.482 248.058 537.482 245.402C537.482 244.871 537.482 244.34 536.951 243.809V242.215C536.951 241.153 537.482 240.091 538.544 239.559C541.731 237.435 545.45 236.372 550.23 236.372C551.824 236.372 553.417 236.372 555.011 236.904C558.729 237.435 561.385 239.028 562.978 241.153C564.572 243.278 565.103 245.934 565.103 249.121C565.103 252.308 564.572 255.495 563.51 259.213C562.447 262.931 561.385 266.649 560.322 269.836C557.667 275.679 556.604 280.46 556.604 284.178V285.24C556.604 286.834 557.667 288.428 558.198 289.49C559.26 290.552 560.322 291.083 561.385 291.083C562.447 291.083 562.978 290.552 563.51 290.021C564.572 288.959 566.165 285.24 568.29 279.398C570.415 273.555 572.008 266.649 574.133 260.275C575.727 253.37 576.789 248.589 576.789 245.934C576.789 245.402 576.789 244.871 576.258 244.34V242.747C576.258 241.684 576.789 240.622 577.851 240.091C580.507 239.028 583.694 238.497 586.35 238.497C590.599 238.497 594.318 239.559 598.036 241.684C601.223 243.809 603.348 247.527 603.348 251.777L602.816 254.964C601.754 260.275 600.161 265.587 598.036 270.899C595.38 276.742 594.318 281.522 594.318 284.178V284.709C594.849 287.365 595.38 288.959 596.974 289.49C597.505 290.021 598.036 290.021 598.567 290.021C600.161 290.021 601.754 288.428 603.348 285.772C604.941 283.116 606.535 279.398 607.597 275.679C608.128 274.617 608.659 273.555 609.722 273.023C610.784 272.492 611.846 271.961 612.909 271.961C614.502 271.961 616.096 272.492 617.158 273.555C618.22 274.617 618.752 275.679 618.752 277.273L618.22 279.398C616.096 285.24 613.971 291.083 610.784 296.395C607.597 301.707 603.879 306.487 599.629 310.206C594.849 314.986 590.068 316.58 583.694 316.58Z" fill="#CD1D63"/>
<g opacity="0.2">
<g opacity="0.2">
<path opacity="0.2" d="M129.009 202.378C144.413 205.033 106.169 161.477 73.7671 171.038C54.6448 176.35 43.4901 227.874 84.9218 206.096C97.67 199.722 105.106 198.659 129.009 202.378Z" fill="#010101"/>
</g>
</g>
<path d="M125.822 199.191C141.226 201.847 102.982 158.29 70.58 167.851C51.4577 173.163 40.3031 224.687 81.7347 202.909C94.4829 196.535 101.919 195.472 125.822 199.191Z" fill="#CD1D63"/>
<g opacity="0.2">
<g opacity="0.2">
<path opacity="0.2" d="M155.037 175.288C158.755 191.754 108.293 156.165 117.323 118.452C122.104 96.1426 178.408 74.8956 156.63 125.357C149.725 141.292 149.194 149.26 155.037 175.288Z" fill="#010101"/>
</g>
</g>
<path d="M151.849 172.101C155.567 188.567 105.106 152.978 114.136 115.265C118.916 92.9557 175.221 71.7087 153.443 122.17C146.537 138.105 146.006 146.073 151.849 172.101Z" fill="#CD1D63"/>
<g opacity="0.2">
<g opacity="0.2">
<path opacity="0.2" d="M141.227 254.964C105.638 263.994 48.8025 282.054 21.7127 302.238C14.2762 307.55 8.4333 309.675 4.71508 301.707C0.996855 293.739 6.3086 287.897 12.6827 282.054C37.6479 257.62 96.6082 234.248 127.948 226.28C136.446 224.156 145.476 225.749 149.195 233.717C152.913 241.684 149.726 252.839 141.227 254.964Z" fill="#010101"/>
</g>
</g>
<path d="M138.039 251.777C102.45 260.807 46.1458 278.867 18.5247 299.051C11.0883 304.363 5.24535 306.488 1.52713 298.52C-2.72227 290.021 2.58948 284.71 8.96357 278.336C33.9288 253.902 92.8892 230.53 124.228 222.562C132.727 220.438 141.757 222.031 145.475 229.999C149.725 238.498 146.538 249.652 138.039 251.777Z" fill="#58371B"/>
<g opacity="0.2">
<g opacity="0.2">
<path opacity="0.2" d="M591.663 451.498C587.945 451.498 584.758 450.436 582.102 447.78C579.446 445.124 578.384 441.937 578.384 438.219C578.384 434.501 579.446 431.314 582.102 428.658C584.758 426.002 587.945 424.94 591.663 424.94C595.381 424.94 598.568 426.002 601.224 428.658C603.88 431.314 604.943 434.501 604.943 438.219C604.943 441.937 603.88 445.124 601.224 447.78C598.568 449.905 595.381 451.498 591.663 451.498ZM598.568 421.221H597.506C595.913 420.69 594.319 420.159 592.725 419.097C591.132 418.034 590.07 417.503 589.538 416.441C587.945 412.723 587.414 407.411 587.414 399.974C587.414 386.695 589.538 370.76 593.257 352.169C596.975 333.578 601.224 320.298 606.005 312.862C607.067 311.268 608.661 309.675 610.785 309.144C612.91 308.612 614.504 308.081 616.628 308.081H617.691C621.409 308.612 625.127 309.675 629.377 311.268C633.095 312.862 636.282 314.455 638.938 316.58C640 317.111 640 318.174 640 318.705C640 319.767 639.469 320.298 638.938 320.829C635.751 323.485 632.564 327.204 630.439 333.046C629.908 334.109 629.377 335.171 628.845 336.234C621.409 351.638 615.566 367.042 611.317 383.508C606.536 399.443 603.88 411.129 602.287 418.566C602.287 419.628 601.755 420.69 601.224 421.221C599.631 420.69 599.1 421.221 598.568 421.221Z" fill="#010101"/>
</g>
</g>
<path d="M588.476 448.311C584.757 448.311 581.57 447.249 578.914 444.593C576.259 441.937 575.196 438.75 575.196 435.032C575.196 431.314 576.259 428.127 578.914 425.471C581.57 422.815 584.757 421.753 588.476 421.753C592.194 421.753 595.381 422.815 598.037 425.471C600.693 428.127 601.755 431.314 601.755 435.032C601.755 438.75 600.693 441.937 598.037 444.593C595.381 447.249 592.194 448.311 588.476 448.311ZM595.381 418.034H594.319C592.725 417.503 591.131 416.972 589.538 415.91C587.944 414.847 586.882 414.316 586.351 413.254C584.757 409.536 584.226 404.224 584.226 396.787C584.226 383.508 586.351 367.573 590.069 348.982C593.787 330.391 598.037 317.111 602.817 309.675C603.88 308.081 605.473 306.488 607.598 305.957C609.723 305.425 611.316 304.894 613.441 304.894H614.503C618.221 305.425 621.94 306.488 626.189 308.081C629.907 309.675 633.094 311.268 635.75 313.393C636.812 313.924 636.812 314.987 636.812 315.518C636.812 316.58 636.281 317.111 635.75 317.642C632.563 320.298 629.376 324.017 627.251 329.859C626.72 330.922 626.189 331.984 625.658 333.046C618.221 348.451 612.378 363.855 608.129 380.321C603.348 396.256 600.693 407.942 599.099 415.379C599.099 416.441 598.568 417.503 598.037 418.034C596.443 417.503 595.912 418.034 595.381 418.034Z" fill="#58371B"/>
</svg>
