<?xml version="1.0" standalone="no"?>
<!DOCTYPE svg PUBLIC "-//W3C//DTD SVG 20010904//EN"
 "http://www.w3.org/TR/2001/REC-SVG-20010904/DTD/svg10.dtd">
<svg version="1.0" xmlns="http://www.w3.org/2000/svg"
 width="640.000000pt" height="640.000000pt" viewBox="0 0 640.000000 640.000000"
 preserveAspectRatio="xMidYMid meet">
<metadata>
Created by potrace 1.14, written by Peter Selinger 2001-2017
</metadata>
<g transform="translate(0.000000,640.000000) scale(0.100000,-0.100000)"
fill="#000000" stroke="none">
<path d="M2860 6145 c-1349 -166 -2399 -1189 -2594 -2525 -14 -99 -17 -106
-48 -130 -83 -64 -156 -130 -186 -169 -43 -56 -45 -124 -6 -170 35 -42 74 -41
144 4 30 19 58 35 61 35 3 0 9 -69 12 -152 29 -696 329 -1380 830 -1895 265
-272 514 -452 850 -613 1002 -482 2202 -354 3082 327 278 216 528 491 702 774
l59 96 27 -23 c37 -31 91 -40 141 -23 119 42 115 219 -6 259 -38 13 -45 19
-37 33 7 12 15 14 33 7 31 -11 64 -2 70 19 3 9 14 55 25 103 84 361 240 776
320 852 17 17 31 39 31 50 0 28 -66 69 -147 93 l-63 18 0 86 c0 51 6 104 15
129 20 58 19 86 -5 103 -17 12 -23 32 -31 108 -23 212 -92 495 -176 719 -164
437 -464 865 -828 1179 -430 371 -937 604 -1505 692 -177 28 -597 35 -770 14z
m700 -420 c736 -113 1366 -516 1773 -1135 80 -122 210 -382 262 -524 45 -122
100 -335 116 -449 12 -82 12 -92 -10 -165 -39 -132 -64 -187 -87 -190 -15 -2
-24 5 -33 26 -14 33 -10 54 29 172 61 182 63 254 9 306 -26 25 -39 29 -103 32
-55 3 -81 0 -107 -13 -43 -22 -50 -34 -43 -67 8 -39 -99 -355 -143 -421 -76
-116 -217 -164 -284 -98 -40 41 -37 57 7 30 142 -87 328 117 312 342 -6 85
-37 136 -105 176 -41 24 -57 27 -132 27 -65 0 -100 -6 -143 -23 -167 -65 -288
-234 -305 -422 -15 -169 97 -323 250 -345 161 -22 311 16 409 104 27 24 43 33
46 24 19 -56 108 -111 180 -112 54 0 95 20 153 77 l46 45 21 -34 c12 -19 31
-43 42 -53 19 -17 21 -26 15 -80 -19 -171 -55 -352 -101 -500 -31 -102 -44
-123 -44 -73 0 48 -39 153 -80 217 -91 143 -297 239 -399 187 -27 -14 -37 -15
-65 -5 -43 16 -89 6 -174 -36 -89 -45 -150 -99 -205 -183 -74 -112 -91 -168
-91 -302 0 -97 4 -124 23 -173 31 -79 104 -172 171 -219 167 -116 444 -103
599 28 l33 27 -42 -69 c-173 -283 -467 -584 -762 -780 -129 -86 -386 -216
-532 -269 -292 -107 -660 -165 -961 -151 -661 31 -1246 286 -1706 746 -107
107 -259 284 -259 303 0 4 24 4 53 0 95 -14 228 -9 282 11 100 38 217 134 287
234 70 101 162 292 218 455 13 37 27 64 31 60 3 -5 32 -80 63 -168 106 -302
138 -438 114 -483 -16 -31 -3 -51 52 -80 53 -27 153 -31 187 -7 41 29 83 181
103 380 20 193 62 438 92 543 53 188 127 296 242 352 114 56 211 50 326 -21
84 -51 114 -19 91 96 -29 142 -130 279 -244 334 -220 106 -485 -19 -602 -283
-73 -164 -125 -434 -125 -644 l0 -55 -56 113 c-46 95 -134 324 -134 350 0 4
18 15 40 25 45 20 109 84 136 136 11 21 19 64 22 114 3 72 1 85 -25 135 -41
80 -120 133 -207 138 -77 5 -128 -18 -181 -81 l-36 -43 -87 29 c-71 24 -109
30 -212 35 -148 6 -213 -6 -309 -54 -82 -41 -132 -93 -173 -180 -55 -118 -55
-262 1 -372 26 -52 108 -124 179 -159 50 -25 68 -28 152 -28 85 0 100 3 141
27 48 28 93 85 105 131 9 38 -18 67 -62 67 -84 0 -87 146 -4 180 31 13 127 9
151 -6 15 -9 6 -59 -32 -174 -67 -205 -179 -387 -273 -444 -38 -24 -62 -31
-115 -34 -82 -4 -123 15 -166 76 -29 42 -30 48 -31 154 0 121 -6 133 -59 123
-97 -17 -216 -114 -270 -217 l-30 -58 -13 38 c-62 179 -102 428 -109 683 -7
264 -6 269 54 292 142 53 416 141 545 176 80 22 157 47 171 55 38 25 61 86 55
146 -8 84 -63 140 -147 148 -72 7 -261 -48 -510 -147 -57 -23 -105 -40 -107
-38 -6 6 45 187 77 278 l31 87 56 22 c74 29 180 36 304 20 111 -14 125 -9 114
37 -10 41 -139 162 -226 213 -41 24 -77 45 -79 46 -5 4 54 103 112 187 l55 78
35 -63 c77 -136 230 -278 300 -278 36 0 39 25 18 129 -12 58 -21 137 -21 188
0 90 0 89 70 278 13 33 25 90 28 127 5 66 6 69 49 104 96 78 276 190 433 268
257 128 546 215 810 245 52 6 109 13 125 15 69 10 456 -3 555 -19z m1502
-2102 c34 -30 21 -81 -35 -140 -31 -33 -77 -45 -77 -20 1 17 45 122 64 152 19
30 24 30 48 8z m181 -1053 c34 -27 43 -84 23 -152 -19 -66 -63 -120 -119 -147
-53 -26 -99 -26 -153 -2 -78 36 -111 121 -83 218 l13 48 8 -45 c14 -80 79
-140 151 -140 49 0 122 34 143 66 20 29 11 44 -25 44 -35 0 -58 18 -66 52 -5
21 -1 33 19 52 30 31 55 33 89 6z"/>
<path d="M2525 5226 c-16 -7 -49 -33 -71 -57 -70 -74 -144 -159 -144 -165 0
-32 86 -90 118 -79 9 3 30 27 45 53 16 26 40 60 53 76 24 27 26 28 40 10 22
-28 64 -116 64 -136 0 -10 9 -22 19 -28 26 -13 58 2 90 42 l25 31 -58 114
c-73 145 -108 171 -181 139z"/>
<path d="M2341 4831 c-147 -55 -273 -181 -359 -359 -39 -81 -46 -104 -50 -173
-8 -134 28 -209 100 -209 24 0 29 -3 24 -17 -21 -52 -29 -153 -18 -216 30
-185 133 -285 302 -295 150 -8 275 40 382 148 77 79 145 206 179 335 33 122
37 308 10 414 -41 163 -136 302 -245 359 -44 23 -65 26 -161 29 -90 3 -120 0
-164 -16z m186 -202 c44 -16 93 -69 121 -129 34 -74 43 -228 17 -316 -43 -150
-132 -230 -263 -240 -79 -6 -119 12 -145 69 -38 79 -9 151 56 145 44 -4 50
-41 10 -60 -74 -35 -14 -108 89 -108 137 0 259 132 258 279 -1 75 -59 156
-129 180 -49 16 -142 14 -198 -5 -66 -22 -149 -79 -179 -123 l-25 -36 7 30
c41 174 183 325 306 325 26 0 59 -5 75 -11z"/>
<path d="M2948 3854 c-36 -19 -58 -63 -58 -115 0 -33 6 -47 34 -75 24 -24 32
-40 29 -57 -7 -35 19 -53 56 -37 67 27 131 114 131 177 0 89 -111 151 -192
107z"/>
<path d="M3550 3759 c-35 -14 -40 -28 -24 -67 8 -19 14 -49 14 -66 0 -43 -41
-195 -77 -291 -17 -44 -39 -115 -49 -158 -18 -77 -18 -80 1 -115 31 -56 110
-95 204 -100 54 -3 81 0 92 10 11 9 21 52 32 148 34 274 104 460 174 460 7 0
19 -11 25 -25 10 -22 4 -39 -50 -148 -79 -159 -102 -230 -102 -316 0 -55 4
-74 22 -96 29 -37 76 -55 143 -55 45 0 63 5 89 25 33 25 33 27 38 123 9 169
116 447 173 447 35 0 28 -32 -31 -153 -53 -109 -57 -123 -61 -202 -4 -76 -2
-90 19 -130 35 -65 98 -101 188 -108 61 -4 76 -1 124 22 76 37 118 110 84 144
-7 7 -20 12 -30 12 -10 0 -28 10 -39 21 -28 28 -23 75 25 234 27 87 36 136 36
187 0 68 -1 72 -38 108 -42 43 -92 60 -173 60 -59 0 -140 -33 -174 -70 -17
-19 -18 -19 -39 13 -61 92 -198 88 -305 -8 -28 -26 -41 -32 -41 -22 0 32 -73
94 -129 111 -62 18 -85 19 -121 5z"/>
<path d="M3090 2822 c-142 -39 -243 -105 -324 -212 -221 -295 -184 -676 78
-796 76 -35 157 -47 266 -41 162 10 307 69 412 169 l38 35 21 -33 c77 -126
249 -170 387 -100 l54 27 -7 -23 c-19 -64 -62 -142 -92 -168 -55 -49 -113 -42
-222 29 -62 40 -73 37 -111 -30 -22 -39 -25 -55 -25 -149 0 -91 3 -111 23
-149 36 -66 108 -137 171 -168 48 -24 69 -28 141 -28 79 0 90 3 150 36 196
107 369 477 451 964 17 96 23 174 23 295 1 152 -1 168 -21 207 -48 89 -148
140 -257 130 -48 -4 -65 -11 -82 -30 -21 -25 -23 -25 -65 -10 -126 43 -306
-40 -433 -199 -68 -85 -123 -194 -137 -273 -17 -92 -29 -115 -84 -174 -79 -84
-197 -132 -273 -111 -44 11 -88 53 -98 94 l-7 28 43 -28 c30 -20 58 -29 99
-32 73 -5 117 16 187 89 91 98 139 234 132 379 -7 128 -54 207 -153 256 -72
35 -191 42 -285 16z m201 -211 c7 -16 5 -40 -6 -76 -19 -67 -88 -135 -136
-135 -29 0 -31 2 -24 28 10 41 73 182 97 214 20 28 21 29 40 11 11 -10 24 -29
29 -42z m803 -82 c36 -28 49 -57 48 -102 -3 -71 -65 -151 -127 -163 -54 -10
-70 11 -69 89 1 77 34 151 78 178 38 23 38 23 70 -2z"/>
</g>
</svg>
