<svg width="204" height="281" fill="none" xmlns="http://www.w3.org/2000/svg"><g filter="url(#b)" clip-path="url(#a)"><path d="M16.099 100.147c-2.079.91-7.166 2.565-15.117 5.949l-.274 1.55c-.22 1.239 1.2 4.047 4.369 7.805 3.423 4.123 6.502 6.586 9.6 7.135 3.41.604 7.461-6.028 12.777-19.787-3.024-2.773-4.663-4.342-4.973-4.397-.62-.11-2.954.435-6.382 1.745Zm43.593-78.242c-5.173-5.072-9.747-8.12-13.155-8.724-2.169-.384-3.208.07-4.048 1.2-1.479 2.934-3.942 6.013-7.39 9.237.525 4.247 2 6.746 4.789 7.24 4.338.77 8.695-.376 13.328-3.07 3.538-1.93 5.471-3.824 6.476-5.883Zm51.319-4.645c-2.644.49-4.978 1.035-6.947 1.326 1.02 1.459 2.604 3.338 4.754 5.636 4.353 4.287 7.742 6.806 9.911 7.19 1.239.22 2.533.13 3.883-.27 1.769-.965 2.973-2.35 3.412-4.828l.44-2.48c-1.13-.838-2.569-1.733-3.754-2.262-6.542-2.758-9.785-4.292-9.785-4.292-.255-.365-.93-.165-1.914-.02Zm44.182 30.204 5.294 13.403c4.149 9.045 7.773 13.842 10.562 14.336 1.859.33 3.518-.015 4.722-1.4.754-7.856-.007-14.383-2.901-19.69-3.004-4.687-5.808-8.7-8.103-11.982-1.494-.585-3.098-.55-4.393-.46-2.643.49-4.577 2.385-5.181 5.793ZM117.152 88.98c1.483-8.366 1.998-13.069 1.543-14.108-2.314-1.37-6.213-4.617-11.386-9.689-.73.51-1.769.965-2.554 1.784-2.553 1.785-3.922 4.099-4.307 6.268-.439 2.479.671 5.232 3.585 8.625 3.114 4.068 7.177 6.386 12.135 7.265.365-.255.674-.2.984-.145Zm64.503 36.363c-.564-.42-1.129-.839-1.749-.949-11.005-6.426-17.771-2.512-20.298 11.742-.33 1.859-.35 3.773.25 5.797.691 3.318 2.64 4.942 5.738 5.491l5.888 1.044c4.122-3.424 7.405-5.718 10.213-7.138 2.444-1.165 4.068-3.114 4.617-6.213.22-1.239-.235-2.278-.945-3.683-1.274-1.823-2.494-3.957-3.714-6.091Zm-78.543 131.171c.719-9.461-3.455-11.159-12.974-6.136-4.942 2.64-10.104 6.519-15.486 11.637l.31.055c9.296 1.648 15.657 1.817 19.76.307 2.389-.855 5.307-2.894 8.39-5.863Zm30.958-52.039 1.035 4.978a549.2 549.2 0 0 0 9.935-.157c1.914.02 3.263-.38 3.738-1.255-.725-4.922 1.028-9.405 4.221-12.994-1.494-.584-3.298-1.224-5.522-1.298-7.602-.389-12.034 2.98-13.407 10.726Zm-40.69-42.688-.33 1.859c-.44 2.479-.46 4.393-.37 5.687.69 3.319 3.205 5.362 7.233 6.076 3.408.605 7.091-.34 10.739-2.89 3.593-2.239 5.582-4.443 5.966-6.612.22-1.24-.38-3.264-1.545-5.707-.565-.42-1.184-.53-1.749-.949-5.358-2.229-7.982-3.653-8.292-3.708-3.408-.604-7.31 1.581-11.653 6.244Zm-41.158 17.632c-2.789-.495-7.786 2.455-14.372 8.957.765 1.095 1.475 2.499 2.495 3.958 3.314 4.742 6.647 7.57 10.366 8.23 3.098.549 6.071-1.8 9.174-6.683 2.209-3.444 3.687-6.378 4.072-8.547-6.997-3.797-10.806-5.75-11.735-5.915Z" fill="#5F3934"/><path d="M.982 106.097c7.896-3.075 13.038-5.04 15.117-5.95 3.428-1.31 5.452-1.91 6.071-1.8.31.056 1.95 1.625 4.973 4.398.055-.31.42-.565.475-.875.55-3.099.57-5.013.424-5.997-.745-3.008-3.314-4.742-7.652-5.511-3.408-.605-7.566 1.215-12.218 5.824-3.868 3.788-6.021 6.922-7.19 9.911Zm34.71-94.838-.719 9.46c.145.985-.074 2.224.07 3.209 3.449-3.224 5.912-6.303 7.39-9.237.53-1.184 1.88-1.584 4.049-1.2 3.408.605 7.671 3.598 13.154 8.724.365-.255.475-.874.53-1.184.22-1.24-1.4-4.723-4.86-10.45C51.539 4.8 48.26 1.663 46.09 1.278c-4.338-.769-7.036.031-8.46 2.655-.365.255-1.114 2.68-1.938 7.327Zm68.427 7.017c1.969-.29 4.302-.835 6.946-1.325.985-.145 1.659-.345 2.279-.235 0 0 3.244 1.533 9.786 4.291 1.129.84 2.624 1.424 3.753 2.263.114-6.052-3.255-10.484-10.162-12.987-3.298-1.224-6.142-1.408-8.53-.553-2.699.8-4.378 3.059-4.927 6.157-.11.62.035 1.605.855 2.39Zm65.386 25.973c-1.44-.894-2.879-1.788-4.428-2.063 2.239 3.593 4.733 7.55 8.102 11.983 2.53 5.562 3.6 12.143 2.902 19.69 1.204-1.385 2.208-3.444 2.757-6.542 1.813-10.226-1.316-17.811-9.333-23.068Zm-44.829 27.528c-.835-4.303-3.859-7.076-8.817-7.955-3.098-.55-6.052-.114-8.805.996 5.173 5.071 9.071 8.32 11.385 9.688.455 1.04-.059 5.742-1.542 14.108 2.534.13 4.613-.78 5.672-3.149.474-.874.804-2.734 1.408-6.142.859-3.044.989-5.577.699-7.546Zm70.11 69.636c.274-1.55-1.2-4.048-4.369-7.806-2.914-3.393-5.938-6.166-9.072-8.32 1.22 2.134 2.439 4.268 3.769 5.782.765 1.094 1.165 2.444.945 3.683-.549 3.099-2.173 5.048-4.617 6.213-2.808 1.419-6.401 3.659-10.214 7.137 5.013.569 9.461.719 13.089.084 6.216-.816 9.809-3.055 10.469-6.773ZM77.871 270.894c9.916 1.758 16.642 1.672 19.925-.622 2.189-1.53 3.723-4.773 4.657-10.041.219-1.239.494-2.789.349-3.773-3.138 3.279-6.056 5.318-8.445 6.173-4.103 1.51-10.775 1.286-19.76-.307l-.31-.055c-.365.255-.785.82-1.15 1.075-.459 4.393 1.016 6.891 4.734 7.55Zm57.233-61.442.2.675c1.82 4.157 4.644 6.256 8.982 7.025 4.028.714 7.201-.961 9.775-4.659 1.369-2.314 2.428-4.683 2.922-7.472.879-4.958-.431-8.386-3.929-10.284-3.503 3.533-4.947 8.071-4.222 12.994-.474.874-1.823 1.275-3.738 1.255-3.263.38-6.471.45-9.99.466Zm-29.762-53.854s2.679 1.114 8.291 3.707c.565.419 1.185.529 1.75.949-.255-.365-.455-1.039-.965-1.769-1.93-3.538-4.334-6.201-6.903-7.935-6.832-4.727-11.684-.793-14.136 11.236 4.342-4.663 8.245-6.847 11.963-6.188Zm-67.547 33.088c6.586-6.503 11.583-9.452 14.372-8.958.62.11 4.737 2.118 11.735 5.915l.11-.619c.384-2.169-.78-4.613-3.295-6.656-2.514-2.044-5.193-3.158-8.91-3.817-8.987-1.593-14.349 1.611-15.832 9.977.2.674.6 2.024 1.82 4.158Z" fill="#7C4F35"/></g><defs><clipPath id="a"><path fill="#fff" d="M0 0h204v281H0z"/></clipPath><filter id="b" x=".686" y=".999" width="202.132" height="279.116" filterUnits="userSpaceOnUse" color-interpolation-filters="sRGB"><feFlood flood-opacity="0" result="BackgroundImageFix"/><feColorMatrix in="SourceAlpha" values="0 0 0 0 0 0 0 0 0 0 0 0 0 0 0 0 0 0 127 0" result="hardAlpha"/><feOffset dx="8" dy="8"/><feComposite in2="hardAlpha" operator="out"/><feColorMatrix values="0 0 0 0 0 0 0 0 0 0 0 0 0 0 0 0 0 0 0.1 0"/><feBlend in2="BackgroundImageFix" result="effect1_dropShadow_1066_340"/><feBlend in="SourceGraphic" in2="effect1_dropShadow_1066_340" result="shape"/></filter></defs></svg>