<svg width="309" height="529" viewBox="0 0 309 529" fill="none" xmlns="http://www.w3.org/2000/svg">
<path d="M377.033 265.416C379.517 262.436 386.031 256.016 395.603 244.761C395.297 243.73 394.991 242.698 394.838 242.182C394.227 240.119 389.909 236.909 382.19 233.585C373.802 229.898 367.21 228.485 362.051 230.014C356.377 231.696 355.251 244.936 357.641 270.041C364.385 271.971 368.092 273.117 368.608 272.964C369.64 272.658 372.792 270.04 377.033 265.416ZM370.184 418.399C381.973 422.2 391.297 423.365 396.971 421.683C400.582 420.613 401.824 419.123 402.244 416.754C402.263 411.137 403.676 404.545 406.484 396.979C402.434 390.884 398.268 388.19 393.626 389.566C386.404 391.707 380.615 396.789 375.59 404.451C371.655 410.107 370.146 414.482 370.184 418.399ZM295.253 464.736C298.922 461.966 302.074 459.348 304.863 457.399C302.188 455.947 298.329 454.285 293.285 452.413C283.349 449.185 276.242 447.924 272.631 448.994C270.567 449.606 268.657 450.733 266.899 452.377C264.932 455.204 264.148 458.242 265.371 462.369C265.83 463.917 266.136 464.948 266.595 466.496C268.964 466.916 271.849 467.184 274.065 467.088C286.178 466.304 292.311 466.17 292.311 466.17C292.98 466.532 293.859 465.711 295.253 464.736ZM204.594 452.324L186.251 435.874C172.991 425.214 163.782 420.648 159.139 422.024C156.044 422.942 153.77 424.738 152.987 427.776C157.841 440.366 163.994 449.766 172.477 455.669C180.655 460.541 188.011 464.533 194.03 467.8C196.762 467.552 199.188 466.271 201.099 465.144C204.767 462.373 206.276 457.998 204.594 452.324ZM231.031 359.753C235.159 373.681 237.968 381.266 239.458 382.508C244.044 382.832 252.489 384.819 264.277 388.62C265.003 387.282 266.245 385.792 266.818 383.939C269.359 379.258 269.683 374.672 268.613 371.061C267.39 366.934 263.588 363.572 256.538 360.611C248.666 356.771 240.679 356.332 232.426 358.778C232.063 359.447 231.547 359.6 231.031 359.753ZM104.586 353.456C105.771 353.667 106.956 353.877 107.987 353.571C129.73 354.983 137.085 343.825 130.053 320.096C129.135 317 127.702 314.058 125.237 311.422C121.645 306.875 117.423 305.881 112.264 307.41C108.653 308.48 105.558 309.398 102.463 310.315C98.7759 318.703 95.5092 324.722 92.2996 329.04C89.4531 332.689 88.4598 336.912 89.9887 342.07C90.6002 344.134 92.0906 345.375 94.2497 346.98C97.5933 348.795 101.09 351.126 104.586 353.456ZM124.42 92.8101C130.554 107.827 138.235 107.234 148.952 92.2735C154.492 84.4587 159.421 74.5805 163.738 62.639L163.222 62.7919C147.747 67.3784 137.888 71.9836 132.768 77.4292C129.769 80.5628 126.865 85.9127 124.42 92.8101ZM116.861 196.06L111.473 189.239C106.104 191.953 101.251 194.513 96.3985 197.074C93.4562 198.507 91.6986 200.15 91.6414 201.851C96.5139 208.824 97.2596 217.021 95.1203 224.95C97.8524 224.701 101.1 224.3 104.559 222.714C116.48 217.497 120.683 208.956 116.861 196.06ZM211.725 230.234C211.419 229.202 211.113 228.171 210.808 227.139C209.585 223.012 208.151 220.07 207.024 218.159C203.432 213.612 198.025 212.409 191.319 214.397C185.644 216.078 180.734 220.339 177.105 227.027C173.322 233.198 171.966 238.089 173.036 241.7C173.647 243.764 176.112 246.4 179.762 249.247C180.946 249.457 181.978 249.151 183.163 249.361C193.06 248.673 198.161 248.844 198.677 248.691C204.351 247.01 208.65 240.685 211.725 230.234ZM261.187 171.804C265.829 170.429 271.217 162.098 276.317 147.118C274.311 146.029 272.152 144.425 269.477 142.973C260.783 138.254 253.523 136.478 247.332 138.312C242.174 139.841 239.423 145.707 238.411 155.547C237.666 162.501 237.648 168.119 238.718 171.73C252.321 172.187 259.639 172.263 261.187 171.804Z" fill="#5F3934"/>
<path d="M395.603 244.76C385.879 255.499 379.517 262.435 377.033 265.415C372.792 270.039 370.155 272.504 369.124 272.81C368.608 272.963 364.901 271.817 358.157 269.887C358.309 270.403 357.947 271.072 358.099 271.588C359.628 276.746 361.061 279.689 362.036 281.083C365.475 285.114 370.729 285.802 377.951 283.662C383.626 281.98 388.593 276.018 392.184 265.414C395.202 256.664 396.1 250.225 395.603 244.76ZM415.026 416.332L408.892 401.315C407.918 399.92 407.306 397.856 406.332 396.462C403.524 404.028 402.11 410.62 402.091 416.237C402.187 418.453 400.429 420.096 396.818 421.167C391.144 422.848 382.336 421.531 370.032 417.882C369.669 418.551 369.974 419.583 370.127 420.098C370.739 422.162 375.879 426.25 385.547 432.364C395.731 438.324 403.144 440.616 406.755 439.546C413.977 437.406 417.492 434.119 417.664 429.018C418.027 428.349 417.319 424.069 415.026 416.332ZM305.016 457.914C302.227 459.863 299.075 462.481 295.406 465.251C294.012 466.226 293.133 467.047 292.101 467.353C292.101 467.353 285.968 467.487 273.855 468.271C271.486 467.851 268.754 468.1 266.384 467.68C270.837 477.022 279.378 481.225 291.854 479.772C297.834 479.122 302.324 477.23 305.323 474.097C308.838 470.81 309.679 466.072 308.15 460.913C307.844 459.882 306.87 458.487 305.016 457.914ZM185.165 468.182C188.05 468.449 190.935 468.716 193.514 467.952C187.342 464.169 180.502 460.024 171.961 455.821C163.841 449.249 157.172 440.002 152.471 427.928C151.688 430.966 151.727 434.882 153.256 440.041C158.301 457.064 168.886 466.272 185.165 468.182ZM232.676 391.812C237.243 397.753 243.988 399.683 252.241 397.237C257.4 395.708 261.584 392.784 264.946 388.982C253.157 385.181 244.712 383.194 240.127 382.87C238.637 381.628 235.828 374.043 231.7 360.115C227.726 361.854 225.242 364.834 225.433 369.267C225.376 370.967 226.294 374.063 227.975 379.737C228.988 385.048 230.727 389.022 232.676 391.812ZM72.2199 338.918C72.9843 341.497 77.1496 344.191 84.8687 347.515C91.919 350.476 98.6636 352.405 105.102 353.303C101.606 350.972 98.1093 348.641 94.9185 347.342C92.9122 346.253 91.269 344.496 90.6575 342.432C89.1286 337.274 90.1219 333.051 92.9684 329.402C96.1779 325.083 99.9605 318.912 103.132 310.677C95.0308 313.639 88.1147 316.811 83.0518 320.556C74.1679 326.556 70.3853 332.728 72.2199 338.918ZM152.026 51.5191C135.518 56.4113 125.297 61.6852 122.03 67.7039C119.852 71.7163 119.986 77.8494 122.585 86.6189C123.197 88.6823 123.961 91.2615 124.936 92.6562C127.228 85.2429 130.132 79.893 133.131 76.7594C138.251 71.3139 148.626 66.5557 163.585 62.1221L164.101 61.9692C164.464 61.3005 164.674 60.1159 165.037 59.4472C162.381 52.3781 158.216 49.6845 152.026 51.5191ZM111.473 189.238L110.651 188.36C104.69 183.392 98.7667 182.342 91.5447 184.482C84.8387 186.47 81.2662 191.457 80.1585 199.08C79.834 203.666 80.0254 208.098 81.4013 212.741C83.8475 220.994 88.4714 225.236 95.2732 225.464C97.9284 217.382 96.6669 209.339 91.7943 202.366C91.8515 200.665 93.6092 199.022 96.5514 197.589C101.251 194.512 106.104 191.952 111.473 189.238ZM198.161 248.843C198.161 248.843 193.213 249.188 182.647 249.513C181.462 249.303 180.431 249.609 179.246 249.399C179.915 249.762 180.736 250.641 182.074 251.366C187.729 255.302 193.442 257.537 198.697 258.224C212.759 260.23 217.172 250.504 211.725 230.233C208.65 240.684 204.351 247.009 198.161 248.843ZM276.164 146.601C271.064 161.581 265.676 169.912 261.034 171.288C260.002 171.593 252.169 171.67 238.565 171.213C238.718 171.729 238.718 171.729 238.871 172.244C239.941 175.855 243.59 178.702 248.998 179.905C254.405 181.109 259.353 180.764 265.543 178.93C280.503 174.496 286.253 165.497 282.126 151.569C281.304 150.69 279.661 148.932 276.164 146.601Z" fill="#7C4F35"/>
</svg>
