<svg width="90" height="49" viewBox="0 0 90 49" fill="none" xmlns="http://www.w3.org/2000/svg">
<g clip-path="url(#clip0_923_56)">
<path d="M0 27.2047H6.8292L10.6509 8.46683H3.82166L0 27.2047ZM4.42608 5.52431H11.2519L12.3531 0.125988H5.51943L4.42608 5.52431ZM9.52948 32.4813H16.3587L20.5022 12.2019H25.4856L26.2706 8.46683H21.2445L21.4172 7.60059C21.7379 6.0032 22.2594 4.14459 24.8341 4.14459C26.3603 4.14459 27.8225 4.3098 29.2411 4.90366L30.0193 0.9565C28.4377 0.404714 26.7735 0.123896 25.0976 0.125988C19.6096 0.125988 15.8294 3.37883 14.4456 8.46683H12.075L11.3327 12.2019H13.6696L9.52948 32.4813Z" fill="#F4F3DC"/>
<path d="M31.1632 27.6233C39.2259 27.6233 44.8216 20.2904 44.8216 14.3094C44.8216 9.95369 40.6859 8.04932 36.7532 8.04932C27.9056 8.04932 23.0915 15.9336 23.0915 21.3632C23.0915 25.7189 27.2697 27.6233 31.1632 27.6233ZM52.7049 27.6233C60.7698 27.6233 66.3644 20.2904 66.3644 14.3094C66.3644 9.95369 62.2198 8.04932 58.2916 8.04932C49.4484 8.04932 44.6264 15.9336 44.6264 21.3632C44.6264 25.7189 48.8092 27.6233 52.7026 27.6233H52.7049ZM77.4672 27.2047H84.2571L89.7104 0.543457H82.8812L81.2541 8.46569C80.3472 8.27058 79.4232 8.16551 78.4955 8.15201C71.8053 8.15201 65.7218 16.6223 65.7218 22.6759C65.7218 25.1663 67.3478 27.621 70.1087 27.621C74.0335 27.621 76.7484 25.71 77.8821 23.9183H78.306L77.4672 27.2047ZM56.4301 41.3278C51.4355 45.5608 44.7588 47.7342 37.5023 47.2854C28.3519 46.725 22.0093 39.6724 20.7332 32.5204H21.1672C23.226 37.0871 28.2364 41.3044 34.5239 41.9976C40.6635 42.6718 48.1868 39.9102 52.3157 35.9675L47.6844 32.4802L61.4359 32.5204L58.4766 47.013L56.4301 41.3278Z" fill="#F4F3DC"/>
</g>
<defs>
<clipPath id="clip0_923_56">
<rect width="89.7103" height="48" fill="white" transform="translate(0 0.125977)"/>
</clipPath>
</defs>
</svg>
