<svg width="237" height="346" fill="none" xmlns="http://www.w3.org/2000/svg"><g filter="url(#b)" clip-path="url(#a)"><path d="M21.678 105.513c-2.774.221-9.334.1-19.904.836l-.94 1.686c-.751 1.348-.231 5.172 1.935 10.797 2.316 6.15 4.897 10.239 8.268 12.118 3.708 2.066 11.062-3.997 22.737-17.812-2.393-4.426-3.664-6.902-4-7.09-.675-.375-3.598-.679-8.096-.535Zm81.881-73.208c-3.963-7.951-8.041-13.317-11.75-15.383-2.36-1.315-3.746-1.204-5.172-.232-2.89 2.808-6.978 5.389-12.266 7.743-1.094 5.134-.386 8.62 2.647 10.311 4.72 2.63 10.23 3.05 16.678 1.784 4.873-.819 7.874-2.24 9.863-4.223Zm61.338 15.185c-3.26-.492-6.183-.795-8.581-1.248.597 2.1 1.68 4.912 3.25 8.438 3.327 6.713 6.245 10.99 8.604 12.305 1.349.751 2.885 1.166 4.609 1.243 2.437-.41 4.387-1.531 5.89-4.228l1.503-2.697c-.973-1.425-2.282-3.039-3.443-4.127-6.477-5.818-9.621-8.896-9.621-8.896-.149-.525-1.012-.563-2.211-.79Zm39.101 52.713.764 17.655c1.183 12.146 3.461 19.158 6.494 20.849 2.023 1.127 4.084 1.392 6.035.27 4.022-8.803 5.756-16.672 4.529-23.983-1.603-6.636-3.245-12.41-4.588-17.135-1.498-1.276-3.371-1.878-4.907-2.293-3.261-.491-6.261.93-8.327 4.637Zm-60.727 32.868c5.072-9.102 7.553-14.346 7.442-15.733-2.133-2.514-5.35-7.841-9.312-15.792-1.05.299-2.437.409-3.675 1.045-3.675 1.044-6.189 3.178-7.504 5.537-1.502 2.697-1.32 6.333.698 11.433 1.978 5.963 5.759 10.278 11.152 13.283.525-.149.862.039 1.199.227Zm60.183 67.996c-.487-.713-.973-1.426-1.647-1.801-10.18-11.858-19.59-10.034-28.231 5.473-1.127 2.022-1.917 4.233-2.033 6.819-.53 4.122 1.078 6.785 4.449 8.664l6.405 3.569c6.15-2.316 10.874-3.659 14.698-4.179 3.299-.37 5.962-1.979 7.841-5.349.751-1.349.641-2.736.381-4.648-.746-2.624-1.305-5.586-1.863-8.548ZM59.853 321.61c4.624-10.677.468-14.318-12.578-12.311-6.786 1.078-14.323 3.505-22.611 7.28l.337.188c10.113 5.635 17.418 8.381 22.778 8.275 3.111-.033 7.31-1.227 12.074-3.432Zm56.735-47.903-.795 6.183c4.084 1.392 7.83 2.596 11.577 3.801 2.21.79 3.935.867 4.835.044 1.132-5.996 4.961-10.489 10.1-13.368-1.497-1.277-3.332-2.741-5.88-3.719-8.653-3.497-15.141-1.369-19.837 7.059Zm-30.05-65.783-1.127 2.022c-1.503 2.697-2.293 4.908-2.707 6.444-.53 4.122 1.565 7.498 5.947 9.94 3.708 2.067 8.355 2.447 13.604.955 5.062-1.155 8.25-2.913 9.565-5.273.752-1.348.868-3.934.497-7.233-.486-.713-1.161-1.088-1.647-1.801-5.316-4.73-7.786-7.432-8.124-7.62-3.708-2.066-9.106-1.098-16.008 2.566Zm-54.766 3.939c-3.034-1.691-10.008-.275-20.247 4.621.448 1.575.708 3.487 1.305 5.587 1.94 6.824 4.67 11.438 8.716 13.692 3.37 1.879 7.758.348 13.31-4.068 3.94-3.106 6.83-5.913 8.145-8.273-6.587-7.205-10.218-10.995-11.23-11.559Z" fill="#D07E2F"/><path d="M1.773 106.349c10.383-.398 17.13-.614 19.904-.836 4.498-.144 7.085-.028 7.759.348.337.188 1.608 2.663 4.001 7.089.188-.337.713-.486.9-.823 1.88-3.371 2.67-5.582 2.896-6.781.342-3.785-1.94-6.824-6.66-9.454-3.708-2.066-9.256-1.624-16.494 1.853-6.001 2.84-9.753 5.609-12.306 8.604Zm78.238-96.002-4.624 10.677c-.227 1.199-.978 2.547-1.204 3.746 5.288-2.354 9.376-4.935 12.266-7.742 1.089-1.161 2.813-1.084 5.172.231 3.709 2.066 7.45 7.244 11.75 15.383.525-.15.9-.823 1.088-1.16.752-1.349.271-6.035-1.443-14.058-2.051-8.211-4.593-13.162-6.953-14.477-4.72-2.63-8.168-2.785-10.87-.314-.524.149-2.364 2.658-5.182 7.714Zm76.492 35.558c2.398.453 5.322.756 8.582 1.248 1.199.227 2.061.265 2.735.64 0 0 3.145 3.078 9.622 8.897.972 1.425 2.47 2.702 3.443 4.127 2.557-6.968.429-13.455-6.572-19.124-3.333-2.74-6.554-4.094-9.665-4.061-3.449-.154-6.3 1.791-8.178 5.162-.376.674-.602 1.873.033 3.111Zm65.371 56.308c-1.31-1.613-2.62-3.227-4.305-4.166 1.155 5.062 2.46 10.648 4.588 17.135.702 7.46-.695 15.517-4.53 23.983 1.951-1.122 3.94-3.106 5.819-6.477 6.199-11.124 5.612-21.17-1.572-30.475Zm-62.988 13.937c.756-5.322-1.637-9.748-7.031-12.754-3.37-1.878-6.968-2.557-10.604-2.375 3.963 7.952 7.179 13.278 9.313 15.792.11 1.387-2.37 6.632-7.442 15.733 2.884 1.166 5.658.945 7.835-1.376.901-.824 2.028-2.846 4.094-6.555 2.216-3.183 3.382-6.067 3.835-8.465Zm53.345 108.805c.939-1.686.231-5.173-1.935-10.798-2.018-5.1-4.411-9.526-7.18-13.278.559 2.962 1.117 5.924 2.051 8.211.448 1.575.371 3.299-.381 4.648-1.878 3.371-4.541 4.979-7.84 5.349-3.824.52-8.886 1.676-14.699 4.179 5.582 2.669 10.677 4.624 15.136 5.342 7.532 1.547 12.594.392 14.848-3.653ZM24.836 328.161c10.787 6.011 18.617 8.608 23.342 7.265 3.15-.896 6.227-4.04 9.42-9.771.752-1.348 1.691-3.034 1.917-4.233-4.95 2.542-9.15 3.736-12.261 3.77-5.36.105-13.003-2.828-22.778-8.276l-.337-.188c-.526.149-1.238.636-1.763.785-2.293 4.907-1.585 8.394 2.46 10.648Zm90.957-48.271-.039.862c.443 5.548 2.874 9.112 7.594 11.742 4.382 2.442 8.731 1.773 13.195-1.482 2.514-2.133 4.691-4.454 6.382-7.488 3.006-5.394 2.862-9.892-.432-13.494-5.476 2.691-8.968 7.372-10.1 13.368-.901.823-2.625.746-4.835-.044-3.935-.867-7.682-2.072-11.765-3.464Zm-12.91-74.344s2.658 2.365 8.124 7.62c.486.713 1.16 1.088 1.647 1.801-.149-.525-.111-1.387-.409-2.437-.819-4.874-2.537-8.924-4.82-11.963-6.024-8.216-13.224-5.602-20.887 7.357 6.901-3.664 12.3-4.632 16.345-2.378Zm-91.546 11.276c10.24-4.897 17.213-6.312 20.247-4.622.674.376 4.642 4.354 11.23 11.559l.375-.674c1.315-2.359.944-5.658-1.15-9.034-2.095-3.377-4.753-5.741-8.798-7.996-9.776-5.447-17.274-3.883-22.346 5.219-.039.862-.116 2.586.442 5.548Z" fill="#F39E4B"/></g><defs><clipPath id="a"><path fill="#fff" d="M0 0h237v346H0z"/></clipPath><filter id="b" x=".51" y=".873" width="235.201" height="342.898" filterUnits="userSpaceOnUse" color-interpolation-filters="sRGB"><feFlood flood-opacity="0" result="BackgroundImageFix"/><feColorMatrix in="SourceAlpha" values="0 0 0 0 0 0 0 0 0 0 0 0 0 0 0 0 0 0 127 0" result="hardAlpha"/><feOffset dx="8" dy="8"/><feComposite in2="hardAlpha" operator="out"/><feColorMatrix values="0 0 0 0 0 0 0 0 0 0 0 0 0 0 0 0 0 0 0.1 0"/><feBlend in2="BackgroundImageFix" result="effect1_dropShadow_1067_350"/><feBlend in="SourceGraphic" in2="effect1_dropShadow_1067_350" result="shape"/></filter></defs></svg>