<svg width="574" height="608" viewBox="0 0 574 608" fill="none" xmlns="http://www.w3.org/2000/svg">
<path d="M183.683 177.109C179.493 177.086 169.668 176.065 153.714 175.816C153.064 176.779 152.414 177.743 152.089 178.224C150.789 180.151 151.08 185.954 153.61 194.671C156.298 204.194 159.646 210.659 164.463 213.909C169.762 217.483 181.571 209.329 200.855 190.096C197.831 183.15 196.241 179.273 195.76 178.948C194.796 178.298 190.449 177.469 183.683 177.109ZM315.897 77.7579C310.97 65.3215 305.538 56.7501 300.239 53.1754C296.868 50.9006 294.773 50.889 292.509 52.1658C287.814 56.0078 281.35 59.3565 273.115 62.212C270.817 69.7738 271.432 75.0954 275.767 78.0202C282.511 82.5698 290.723 83.9043 300.559 82.8305C307.976 82.2267 312.659 80.4798 315.897 77.7579ZM405.978 108.391C401.149 107.236 396.803 106.407 393.263 105.42C393.89 108.647 395.155 113.005 397.058 118.495C401.191 128.993 405.021 135.783 408.393 138.058C410.32 139.358 412.571 140.176 415.148 140.512C418.856 140.211 421.926 138.777 424.526 134.924C425.501 133.478 426.151 132.515 427.126 131.07C425.849 128.807 424.091 126.219 422.489 124.437C413.517 114.879 409.193 109.859 409.193 109.859C409.036 109.053 407.748 108.884 405.978 108.391ZM457.891 192.48L456.778 219.065C456.999 237.439 459.518 248.25 463.853 251.175C466.743 253.125 469.801 253.786 472.871 252.353C480.032 239.661 483.642 228.077 482.736 216.952C481.18 206.791 479.457 197.917 478.046 190.657C475.963 188.551 473.229 187.408 470.978 186.589C466.149 185.435 461.466 187.182 457.891 192.48ZM362.578 234.017C371.353 221.012 375.745 213.462 375.757 211.367C372.878 207.322 368.735 198.919 363.807 186.482C362.194 186.796 360.099 186.784 358.161 187.579C352.514 188.676 348.469 191.555 346.194 194.927C343.594 198.78 343.403 204.258 345.777 212.168C347.982 221.367 353.101 228.325 360.808 233.524C361.615 233.367 362.097 233.692 362.578 234.017ZM444.165 343.733C443.526 342.601 442.888 341.47 441.925 340.82C428.17 321.727 413.819 323.26 398.87 345.417C396.92 348.307 395.452 351.523 394.947 355.388C393.624 361.504 395.696 365.706 400.513 368.956C403.885 371.23 406.775 373.18 409.665 375.13C419.188 372.443 426.448 371.032 432.251 370.742C437.248 370.609 441.449 368.537 444.699 363.72C445.999 361.793 446.011 359.698 445.866 356.796C445.082 352.763 444.623 348.248 444.165 343.733ZM213.295 506.198C221.599 490.773 215.83 484.778 196 486.119C185.682 486.868 174.064 489.544 161.146 494.146L161.627 494.471C176.078 504.221 186.687 509.275 194.742 509.803C199.413 510.151 205.867 508.897 213.295 506.198ZM304.545 441.593L302.56 450.768C308.509 453.379 313.976 455.666 319.443 457.952C322.658 459.42 325.234 459.757 326.691 458.637C329.157 449.787 335.477 443.536 343.555 439.874C341.471 437.768 338.906 435.336 335.21 433.543C322.674 427.189 312.669 429.551 304.545 441.593ZM267.882 339.055C267.232 340.018 266.582 340.982 265.932 341.945C263.333 345.798 261.864 349.013 261.046 351.265C259.723 357.382 262.434 362.715 268.696 366.94C273.994 370.515 280.918 371.681 288.984 370.114C296.726 369.028 301.734 366.8 304.009 363.428C305.309 361.501 305.813 357.636 305.68 352.639C305.041 351.508 304.078 350.858 303.44 349.726C296.069 341.95 292.709 337.58 292.227 337.255C286.929 333.68 278.705 334.441 267.882 339.055ZM185.214 337.954C180.878 335.03 170.235 336.26 154.247 342.296C154.717 344.716 154.862 347.618 155.489 350.845C157.527 361.331 161.032 368.603 166.812 372.502C171.629 375.752 178.407 374.017 187.304 368.103C193.612 363.947 198.307 360.105 200.581 356.734C191.621 345.081 186.659 338.929 185.214 337.954Z" fill="#D07E2F"/>
<path d="M153.713 175.816C169.341 176.546 179.491 177.086 183.681 177.109C190.448 177.469 194.313 177.973 195.276 178.623C195.758 178.948 197.348 182.825 200.372 189.771C200.697 189.29 201.504 189.133 201.829 188.651C205.078 183.834 206.547 180.619 207.04 178.849C208.038 173.214 205.003 168.363 198.259 163.813C192.96 160.238 184.58 160.192 173.276 164.481C163.909 167.975 157.926 171.649 153.713 175.816ZM283.379 41.8012L275.075 57.2267C274.582 58.9967 273.282 60.9235 272.788 62.6935C281.023 59.838 287.488 56.4893 292.183 52.6474C293.964 51.0456 296.541 51.3821 299.913 53.6569C305.211 57.2316 310.162 65.478 315.571 78.2394C316.378 78.0827 317.028 77.1194 317.353 76.6377C318.653 74.7109 318.53 67.6192 316.986 55.3626C314.961 42.781 311.78 35.0278 308.408 32.753C301.665 28.2034 296.511 27.5304 292.142 30.8906C291.335 31.0473 288.253 34.5759 283.379 41.8012ZM393.586 104.938C397.126 105.925 401.473 106.755 406.301 107.909C408.071 108.403 409.36 108.571 410.323 109.221C410.323 109.221 414.647 114.241 423.619 123.798C424.896 126.062 426.979 128.168 428.256 130.432C432.986 120.305 430.623 110.3 420.844 100.899C416.196 96.3604 411.536 93.9173 406.864 93.5693C401.711 92.8962 397.184 95.4498 393.934 100.267C393.284 101.23 392.791 103 393.586 104.938ZM484.452 197.784C482.693 195.195 480.935 192.607 478.526 190.982C479.612 198.724 480.854 207.272 483.216 217.277C483.315 228.559 480.188 240.467 473.352 252.678C476.421 251.244 479.66 248.522 482.909 243.705C493.634 227.81 494.039 212.663 484.452 197.784ZM388.169 210.629C389.985 202.742 386.961 195.796 379.254 190.596C374.437 187.346 369.127 185.867 363.649 185.675C368.576 198.112 372.72 206.515 375.599 210.56C375.587 212.655 371.194 220.205 362.42 233.211C366.599 235.329 370.789 235.352 374.352 232.148C375.808 231.028 377.758 228.138 381.333 222.839C385.064 218.348 387.182 214.169 388.169 210.629ZM454.274 380.694C455.899 378.286 455.283 372.964 452.753 364.248C450.379 356.338 447.355 349.391 443.682 343.408C444.14 347.923 444.599 352.438 445.707 355.99C446.178 358.41 445.841 360.986 444.541 362.913C441.291 367.73 437.09 369.802 432.093 369.935C426.29 370.226 418.548 371.311 409.507 374.323C417.539 379.041 424.932 382.627 431.531 384.275C442.632 387.56 450.374 386.474 454.274 380.694ZM159.92 511.545C175.334 521.944 186.75 526.842 194.01 525.431C198.85 524.491 203.869 520.167 209.394 511.979C210.694 510.052 212.319 507.643 212.812 505.873C205.059 509.054 198.605 510.307 193.934 509.959C185.879 509.432 174.788 504.052 160.819 494.628L160.338 494.303C159.531 494.46 158.399 495.098 157.593 495.255C153.525 502.323 154.14 507.645 159.92 511.545ZM302.559 450.768L302.391 452.056C302.345 460.436 305.537 466.095 312.28 470.644C318.542 474.869 325.152 474.422 332.267 470.11C336.312 467.231 339.875 464.028 342.8 459.692C347.999 451.985 348.359 445.219 343.878 439.392C335.319 442.729 329.481 449.305 327.014 458.155C325.558 459.275 322.981 458.939 319.766 457.47C313.974 455.666 308.507 453.379 302.559 450.768ZM292.707 337.58C292.707 337.58 296.393 341.468 303.92 350.051C304.558 351.183 305.522 351.833 306.16 352.964C306.003 352.158 306.172 350.869 305.858 349.256C305.254 341.839 303.194 335.543 300.159 330.691C292.173 317.593 281.036 320.594 267.881 339.055C278.704 334.441 286.927 333.68 292.707 337.58ZM153.921 342.778C169.909 336.742 180.552 335.511 184.887 338.436C185.851 339.086 191.294 345.562 200.255 357.215C200.58 356.734 200.58 356.734 200.905 356.252C203.18 352.88 203.046 347.883 200.336 342.55C197.625 337.217 193.94 333.329 188.16 329.429C174.191 320.005 162.741 321.392 153.967 334.398C153.799 335.686 153.462 338.263 153.921 342.778Z" fill="#F39E4B"/>
</svg>
